<svg version="1.1" id="Layer_1" xmlns="http://www.w3.org/2000/svg" xmlns:xlink="http://www.w3.org/1999/xlink" x="0px" y="0px"
	 width="100%" viewBox="0 0 300 300" enable-background="new 0 0 300 300" xml:space="preserve">
<path fill="#000000" opacity="1.000000" stroke="none" 
	d="
M173.000000,301.000000 
	C115.333344,301.000000 58.166687,301.000000 1.000023,301.000000 
	C1.000015,201.000031 1.000015,101.000053 1.000008,1.000063 
	C100.999947,1.000042 200.999893,1.000042 300.999878,1.000021 
	C300.999939,100.999939 300.999939,200.999878 300.999969,300.999908 
	C258.500000,301.000000 216.000000,301.000000 173.000000,301.000000 
M144.366196,180.104721 
	C144.211761,180.427048 144.057327,180.749374 143.617386,181.637360 
	C142.041428,183.377090 140.465485,185.116821 138.870239,186.939362 
	C138.870239,186.939362 138.922623,187.006332 138.441620,187.092224 
	C138.124359,187.277451 137.981308,187.553101 137.934387,187.918472 
	C137.934387,187.918472 137.917435,187.994690 137.190842,187.953445 
	C136.686859,188.940628 136.182877,189.927811 135.078964,191.339676 
	C134.387726,193.266968 133.143127,195.181763 133.099319,197.123657 
	C132.889603,206.418259 132.909470,215.721436 133.031754,225.019165 
	C133.157043,234.547073 131.050903,234.134262 142.912491,233.957901 
	C145.612091,233.939499 148.311691,233.921112 151.898590,233.953812 
	C154.270538,233.932480 156.642502,233.911163 159.885757,233.957184 
	C161.926941,233.931885 163.968124,233.906601 166.882477,233.948456 
	C168.927307,233.922424 170.972122,233.896393 173.902664,233.941376 
	C176.273468,233.912338 178.644287,233.883301 181.899475,233.944107 
	C184.270889,233.910995 186.642288,233.877884 189.897400,233.941544 
	C192.271164,233.905655 194.644943,233.869781 197.909302,233.945251 
	C200.610703,233.906906 203.312103,233.868561 206.896561,233.937042 
	C209.271317,233.900253 211.646088,233.863449 214.922348,233.933792 
	C217.953506,233.898849 220.984680,233.863907 224.664520,233.724976 
	C227.113052,233.435257 229.561584,233.145523 232.745605,232.968811 
	C234.539261,232.411606 236.332901,231.854401 238.808487,231.091400 
	C239.874252,230.694962 240.940018,230.298523 242.715714,230.044556 
	C244.514664,229.100266 246.313629,228.155960 248.756027,227.053253 
	C249.516724,226.650879 250.277420,226.248505 251.682968,225.758469 
	C252.850433,224.872986 254.017899,223.987503 255.606873,223.044022 
	C255.606873,223.044022 256.012543,222.915558 256.606232,222.885925 
	C257.101074,222.288315 257.595886,221.690704 258.081543,221.035309 
	C258.081543,221.035309 258.031464,221.065613 258.552948,220.923691 
	C258.763000,220.639206 258.973053,220.354721 259.601990,220.039490 
	C259.601990,220.039490 260.008636,219.934570 260.617645,219.914368 
	C261.157471,219.315659 261.697266,218.716934 262.656525,217.956863 
	C262.918427,217.776428 263.076599,217.529541 263.660248,216.930344 
	C264.175934,216.324387 264.691620,215.718430 265.628540,214.947220 
	C265.896729,214.767044 266.051270,214.516724 266.614014,213.914368 
	C267.109009,213.312347 267.604004,212.710342 268.090179,212.017731 
	C268.090179,212.017731 268.131866,212.098892 268.773499,211.818436 
	C270.869507,208.005615 273.129791,204.272675 275.029572,200.364456 
	C279.976929,190.186783 278.204987,179.208969 277.743652,168.639328 
	C277.420685,161.239273 274.066956,154.165848 268.087433,148.900986 
	C268.087433,148.900986 268.061829,148.947128 267.985291,148.402802 
	C267.674194,148.247833 267.363129,148.092850 267.001831,148.000031 
	C267.001831,148.000031 267.062225,147.947418 266.984619,147.403503 
	C266.673706,147.248337 266.362823,147.093170 266.002014,147.000153 
	C266.002014,147.000153 266.062134,146.947449 265.983978,146.403992 
	C265.673309,146.248734 265.362640,146.093475 265.002136,146.000259 
	C265.002136,146.000259 265.061951,145.947372 264.983551,145.404236 
	C264.673065,145.248962 264.362579,145.093704 264.001068,144.998779 
	C264.001068,144.998779 264.061493,144.947952 263.982941,144.402557 
	C263.673492,144.235748 263.364075,144.068954 263.040222,144.001266 
	C263.040222,144.001266 263.081512,143.909515 262.805603,143.369400 
	C262.241058,143.178299 261.676514,142.987198 260.953094,142.337524 
	C260.754211,142.052048 260.481323,141.896118 260.070221,141.880280 
	C260.070221,141.880280 260.096619,141.939804 259.915161,141.467087 
	C259.621490,141.348022 259.327820,141.228958 258.413849,140.787613 
	C256.613129,139.874191 254.812424,138.960770 252.367065,137.725311 
	C250.248108,136.863770 248.129135,136.002213 245.575485,134.899323 
	C245.721786,134.551346 245.868073,134.203384 246.668045,133.999268 
	C247.501724,133.391617 248.335419,132.783981 249.863770,132.062943 
	C252.331207,129.963623 254.798630,127.864304 257.608826,125.703308 
	C257.608826,125.703308 257.692657,125.365295 258.206818,125.297386 
	C258.447052,124.863350 258.687286,124.429314 259.209991,123.371536 
	C260.493011,121.296082 261.776001,119.220634 263.702118,116.812569 
	C270.529114,106.621597 271.265869,95.220558 269.228027,83.724236 
	C268.310974,78.550583 265.201599,73.765533 263.034119,68.396004 
	C263.034119,68.396004 262.918884,68.000900 262.888336,67.389786 
	C262.288757,66.852211 261.689148,66.314644 260.807861,65.227776 
	C259.599884,64.119614 258.391907,63.011456 256.926392,61.388321 
	C256.344971,60.902309 255.763580,60.416298 254.858795,59.394810 
	C254.282867,59.180851 253.706924,58.966896 252.745743,58.171490 
	C250.101074,60.720207 247.456406,63.268929 244.371292,66.024208 
	C244.097565,66.220718 243.907959,66.478981 243.225006,67.110802 
	C242.742249,68.038513 242.259491,68.966232 241.379959,70.087425 
	C241.128067,70.270927 240.977020,70.516472 240.392670,71.095177 
	C239.968338,71.723808 239.544006,72.352440 238.849396,73.568939 
	C237.865799,74.696884 236.882202,75.824829 235.365173,77.281166 
	C234.562439,78.485443 233.759689,79.689713 232.336609,81.194664 
	C230.472214,83.088661 228.607819,84.982658 226.194489,87.233078 
	C223.140717,89.590477 222.291870,91.909470 224.534286,95.757492 
	C225.711624,97.777840 224.999023,101.259300 224.354431,103.888374 
	C223.590454,107.004448 221.980606,109.913139 220.229965,113.182068 
	C219.451508,114.027649 218.673035,114.873238 217.268723,115.854095 
	C216.765518,116.199402 216.262299,116.544708 215.221924,117.196434 
	C214.414505,117.769440 213.607086,118.342438 212.043228,118.981331 
	C209.654449,119.583115 207.265686,120.184891 204.183731,120.814980 
	C201.409821,121.122894 198.635910,121.430809 195.288055,122.106659 
	C192.434280,125.678986 189.580505,129.251312 186.043106,132.908173 
	C181.991058,137.284576 177.933319,141.655792 173.908020,146.056656 
	C173.748795,146.230728 173.898575,146.687439 173.681534,147.602249 
	C172.397903,148.997513 171.114273,150.392776 169.839417,151.873871 
	C169.839417,151.873871 169.905060,151.929840 169.181305,151.896515 
	C168.419495,152.937469 167.657700,153.978439 166.648743,155.595428 
	C165.383423,157.001083 164.118088,158.406738 162.861649,159.906021 
	C162.861649,159.906021 162.931320,159.968582 162.433456,160.069229 
	C162.281769,160.355316 162.130081,160.641403 161.943283,160.942139 
	C161.943283,160.942139 161.925858,160.975937 161.421707,161.056473 
	C161.275772,161.345123 161.129852,161.633774 160.937332,161.920059 
	C160.937332,161.920059 160.910355,161.958115 160.193161,161.899246 
	C159.754517,162.606400 159.315857,163.313538 158.633636,164.592224 
	C157.629059,165.681534 156.624466,166.770828 155.078918,168.227280 
	C152.679077,171.096146 150.279236,173.964996 147.873688,176.919724 
	C147.873688,176.919724 147.927780,176.986633 147.442932,177.087662 
	C147.125748,177.276382 146.976562,177.555054 146.931351,177.929810 
	C146.931351,177.929810 146.922150,177.993469 146.431320,178.075333 
	C146.106186,178.263702 145.962570,178.544815 145.926910,178.925552 
	C145.926910,178.925552 145.917450,178.998810 145.420471,179.063141 
	C145.281616,179.347046 145.142761,179.630951 144.921051,179.925659 
	C144.921051,179.925659 144.914917,180.008987 144.366196,180.104721 
M192.607086,106.577301 
	C192.607086,106.577301 192.673721,106.298752 193.216492,106.338287 
	C193.479141,105.887550 193.741791,105.436813 194.208786,104.435158 
	C194.844086,103.697609 195.479401,102.960068 196.634399,101.938843 
	C197.123123,101.333717 197.611847,100.728592 198.104584,100.063110 
	C198.104584,100.063110 198.150665,100.102295 198.769623,99.834709 
	C202.543701,95.284340 206.317780,90.733971 210.625595,85.906364 
	C211.154480,85.312881 211.683350,84.719391 212.636429,83.960739 
	C212.901764,83.780823 213.068207,83.534172 213.723038,82.882233 
	C215.512924,80.650223 217.302811,78.418213 219.630005,75.911446 
	C220.156876,75.312912 220.683746,74.714378 221.634354,73.956718 
	C221.900909,73.778313 222.062347,73.531235 222.700302,72.881668 
	C222.888947,72.336395 223.077591,71.791130 223.465439,71.394554 
	C223.465439,71.394554 223.659454,71.239151 224.274948,71.211029 
	C224.628372,70.259682 224.981781,69.308334 225.243057,68.346741 
	C225.243057,68.346741 225.322784,68.299408 225.934418,68.321434 
	C226.051788,67.975311 226.169144,67.629181 226.464142,67.475716 
	C226.464142,67.475716 226.693161,67.348358 227.261047,67.176086 
	C231.433105,62.745682 235.557251,58.268734 239.796356,53.903427 
	C242.106354,51.524651 241.108658,49.915565 238.562668,49.309368 
	C234.125259,48.252823 229.576477,47.664047 225.037628,46.945492 
	C225.037628,46.945492 225.112274,46.958672 224.920166,46.488903 
	C224.626007,46.375206 224.331863,46.261505 223.506073,46.040276 
	C223.326477,46.061123 223.146881,46.081966 222.155106,45.968830 
	C220.786469,46.022934 219.417816,46.077038 217.341980,45.780846 
	C215.565399,45.572178 213.788818,45.363506 211.089691,45.023609 
	C206.730255,45.074657 202.370819,45.125706 197.192688,45.043571 
	C194.985855,45.716862 192.332138,45.841072 190.675034,47.189793 
	C188.070053,49.309986 186.136475,52.255093 183.309937,55.179874 
	C179.481445,59.387154 175.652954,63.594433 171.840134,67.906952 
	C171.840134,67.906952 171.941910,67.939064 171.411911,68.025650 
	C171.259399,68.329269 171.106903,68.632889 170.909744,68.882202 
	C170.909744,68.882202 170.847137,68.914139 170.265656,69.074799 
	C169.851212,69.715813 169.436768,70.356827 168.761261,71.618843 
	C166.824036,73.704788 164.886810,75.790733 162.895676,77.884773 
	C162.895676,77.884773 162.875519,77.935425 162.280960,78.066017 
	C161.855942,78.707993 161.430923,79.349976 160.742264,80.616890 
	C158.445435,83.394341 156.148605,86.171783 153.253052,89.260094 
	C149.792496,93.492050 146.331940,97.724007 142.295303,102.275536 
	C140.630005,103.902710 138.874008,105.448189 137.319046,107.174728 
	C134.430420,110.382065 131.659073,113.695023 128.250061,117.274109 
	C124.790337,121.500916 121.330620,125.727722 117.300682,130.283447 
	C115.635185,131.905319 113.880920,133.446793 112.323418,135.166489 
	C109.427505,138.363953 106.646278,141.665283 103.252472,145.278961 
	C99.715698,149.486359 96.178932,153.693741 92.121422,158.252167 
	C88.353546,162.481293 84.585678,166.710419 80.345154,171.193436 
	C79.880257,171.728363 79.415359,172.263290 78.530586,173.098328 
	C78.367233,173.391922 78.203873,173.685501 77.705864,174.568161 
	C75.771812,176.705780 73.837753,178.843399 71.330101,181.317276 
	C68.145851,184.849228 64.961594,188.381180 61.304340,192.357727 
	C58.497486,195.836929 55.690632,199.316132 52.311043,203.163071 
	C49.134277,206.686737 45.957516,210.210403 42.229897,214.126801 
	C36.220619,220.752792 30.211342,227.378784 23.394365,234.895370 
	C31.504902,234.895370 38.256641,234.895370 45.906048,234.949341 
	C48.605980,234.932709 51.305912,234.916077 54.912205,234.954834 
	C57.946098,234.934479 60.979992,234.914124 64.936340,234.950821 
	C68.948532,235.000473 72.960724,235.050125 77.690193,235.119690 
	C78.201889,234.441666 78.713577,233.763641 79.756828,232.759338 
	C81.218773,231.290695 82.680717,229.822052 84.703514,227.932785 
	C88.480164,223.341263 92.256813,218.749741 96.637466,213.849457 
	C99.777550,210.318787 102.917625,206.788101 106.557465,202.954590 
	C106.816620,202.664978 107.075775,202.375381 107.681267,201.911636 
	C107.889389,201.749344 108.047668,201.547882 108.718788,200.919601 
	C112.830185,196.000031 116.941574,191.080460 121.634987,185.834183 
	C123.813370,183.683334 125.991753,181.532486 128.737549,178.996811 
	C129.245758,178.029526 129.753967,177.062225 130.764114,175.814102 
	C131.549561,174.991592 132.335007,174.169098 133.694962,172.958252 
	C137.810837,168.015427 141.926727,163.072601 146.603500,157.893234 
	C147.150818,157.298538 147.698135,156.703827 148.638702,155.950439 
	C148.883438,155.784378 149.046982,155.559311 149.655121,154.954025 
	C150.210938,154.353409 150.766769,153.752792 151.698334,152.988678 
	C151.932114,152.824738 152.087738,152.605377 152.737625,151.966690 
	C153.236938,151.008408 153.736252,150.050125 154.751572,148.820557 
	C155.543365,147.973709 156.335159,147.126862 157.639816,145.962952 
	C158.111343,145.333588 158.582870,144.704208 159.074097,144.046600 
	C159.074097,144.046600 159.105850,144.059967 159.697891,143.861847 
	C159.876602,143.361603 160.055298,142.861359 160.313431,142.274857 
	C160.313431,142.274857 160.274582,142.164215 160.938721,142.424042 
	C161.364548,141.645874 161.790375,140.867691 162.738785,139.824158 
	C163.536377,138.974060 164.333969,138.123962 165.719635,136.877518 
	C165.861130,136.286346 166.002625,135.695190 166.217514,135.255356 
	C166.217514,135.255356 166.377548,135.203644 167.032974,135.336716 
	C169.064606,132.979080 171.096222,130.621460 173.703049,127.892853 
	C173.870834,127.322601 174.038620,126.752350 174.309586,126.238815 
	C174.309586,126.238815 174.398651,126.161797 175.086487,126.262787 
	C179.468155,121.220146 183.849823,116.177505 188.631134,110.960266 
	C188.881927,110.787903 189.048325,110.555199 189.650253,109.979614 
	C190.143112,109.380623 190.635986,108.781639 191.171066,108.162109 
	C191.171066,108.162109 191.200546,108.125587 191.699951,107.925957 
	C191.909317,107.497925 192.118683,107.069901 192.607086,106.577301 
M71.704155,159.075439 
	C72.230522,158.411789 72.756889,157.748138 73.730186,156.825607 
	C74.192894,156.319870 74.655602,155.814133 75.648529,154.925339 
	C77.151527,153.426392 78.654526,151.927429 80.671562,149.979553 
	C80.894875,149.347336 81.118187,148.715103 81.656639,147.866150 
	C81.853165,147.694107 81.995636,147.485214 82.655640,146.854660 
	C85.460472,143.538101 88.265312,140.221542 91.547775,136.822647 
	C91.844482,136.639938 92.016899,136.376007 92.002907,136.047714 
	C92.002907,136.047714 92.063881,136.068542 92.669884,135.790894 
	C94.823524,133.719177 96.977173,131.647461 99.633003,129.092667 
	C96.484612,127.729385 94.270081,126.770470 91.615211,125.317238 
	C90.118080,123.855583 88.446724,122.532555 87.154182,120.908104 
	C81.771049,114.142624 81.905838,106.054375 81.970711,97.304825 
	C82.333916,95.929543 82.697113,94.554260 83.671616,92.856453 
	C86.117905,90.203072 88.564201,87.549698 91.723846,84.964790 
	C94.540451,83.686035 97.357056,82.407288 100.974991,81.032562 
	C102.321259,80.964279 103.667534,80.895996 105.843857,80.935379 
	C107.236740,80.899101 108.629623,80.862823 110.714203,80.924843 
	C111.178192,80.898949 111.642189,80.873062 113.026680,80.951302 
	C119.625053,80.951302 126.223427,80.951302 132.679504,80.951302 
	C132.985977,83.965454 133.226227,86.328392 133.466476,88.691338 
	C133.901138,88.783997 134.335800,88.876656 134.770462,88.969315 
	C135.215714,88.021736 135.660980,87.074165 136.068268,86.037483 
	C136.068268,86.037483 136.034088,86.128105 136.709274,86.519226 
	C137.192963,85.683022 137.676666,84.846825 138.678406,83.833084 
	C139.150696,83.287613 139.623001,82.742142 140.625137,81.904892 
	C141.161377,81.310036 141.697632,80.715172 142.640976,79.954926 
	C142.895493,79.780479 143.057709,79.542992 143.719727,78.888519 
	C147.193146,74.668770 150.666565,70.449020 154.687943,65.843033 
	C157.477661,62.614754 160.267395,59.386475 163.668991,55.858257 
	C166.539352,52.598995 169.409714,49.339733 173.071396,45.181950 
	C168.499237,45.181950 165.256485,45.181950 161.122070,45.040234 
	C158.418243,45.087437 155.714417,45.134636 152.119064,45.044647 
	C149.417786,45.089817 146.716522,45.134987 143.124161,45.035938 
	C140.420944,45.082661 137.717712,45.129383 134.132614,45.044369 
	C131.758621,45.088192 129.384644,45.132011 126.129059,45.050678 
	C123.756264,45.094257 121.383461,45.137833 118.129021,45.058708 
	C115.757973,45.100117 113.386932,45.141525 110.164528,45.057365 
	C108.447617,45.095650 106.730713,45.133930 104.162575,45.057861 
	C102.446716,45.089607 100.730865,45.121353 98.156761,45.047482 
	C94.766930,45.353420 91.377106,45.659363 87.231941,46.062355 
	C85.492935,46.423309 83.753929,46.784260 81.309219,47.344204 
	C77.866333,48.537460 74.423439,49.730717 70.971786,50.974148 
	C70.971786,50.974148 70.946442,50.929859 70.266884,50.844963 
	C69.454773,51.150223 68.642670,51.455486 67.267632,52.179985 
	C65.433540,53.125767 63.599442,54.071548 61.309021,55.447632 
	C59.441483,56.600628 57.573944,57.753624 55.235065,59.283199 
	C54.148823,60.507595 53.062576,61.731991 51.386810,63.284306 
	C48.596375,66.857033 45.805939,70.429764 42.717228,74.665306 
	C37.141258,83.946510 37.450451,94.531525 37.322716,104.610374 
	C37.196735,114.550766 37.847157,124.857086 43.002567,134.721558 
	C45.957188,138.547531 48.911808,142.373505 52.115051,146.556305 
	C52.298359,146.789581 52.525253,146.967194 53.112438,147.509720 
	C53.396160,147.711655 53.679882,147.913574 54.281712,148.636124 
	C55.131050,149.128235 55.980389,149.620361 56.934242,150.812897 
	C58.572536,151.892517 60.210827,152.972137 62.174099,154.663254 
	C64.048904,155.869186 65.923706,157.075104 68.294617,158.754288 
	C69.196838,158.850616 70.099068,158.946945 71.704155,159.075439 
z"/>
<path fill="#392733" opacity="1.000000" stroke="none" 
	d="
M75.118301,155.308380 
	C74.655602,155.814133 74.192894,156.319870 73.172745,156.950989 
	C72.046257,157.374542 71.477211,157.672684 70.630653,157.843536 
	C69.501595,157.904495 68.650055,158.092758 67.798515,158.281021 
	C65.923706,157.075104 64.048904,155.869186 62.414833,154.322235 
	C63.768524,152.229401 65.593277,150.573380 65.844589,148.705643 
	C66.350258,144.947601 66.000259,141.074173 66.000328,137.248367 
	C66.000793,112.131050 66.022545,87.013687 65.971512,61.896477 
	C65.965363,58.868290 66.708702,55.136120 61.765347,55.017326 
	C63.599442,54.071548 65.433540,53.125767 67.732491,52.180016 
	C69.113716,51.763321 70.030075,51.346588 70.946442,50.929855 
	C70.946442,50.929859 70.971786,50.974148 71.382019,51.003265 
	C72.528412,52.785728 73.898659,54.536297 73.906342,56.292824 
	C74.037834,86.355026 73.969933,116.418037 74.049683,146.480606 
	C74.057495,149.424118 74.745834,152.365829 75.118301,155.308380 
z"/>
<path fill="#442C34" opacity="1.000000" stroke="none" 
	d="
M75.383408,155.116852 
	C74.745834,152.365829 74.057495,149.424118 74.049683,146.480606 
	C73.969933,116.418037 74.037834,86.355026 73.906342,56.292824 
	C73.898659,54.536297 72.528412,52.785728 71.386398,50.978180 
	C74.423439,49.730717 77.866333,48.537460 81.657471,47.699814 
	C82.357254,63.096607 82.708786,78.137794 83.060310,93.178978 
	C82.697113,94.554260 82.333916,95.929543 81.566040,97.781799 
	C80.771797,99.778473 79.900169,101.357719 80.079239,102.807182 
	C80.724449,108.029915 82.310905,113.191895 82.461990,118.408104 
	C82.740005,128.006836 82.252518,137.627762 82.084068,147.239441 
	C81.995636,147.485214 81.853165,147.694107 81.179382,148.142059 
	C80.520592,149.088135 80.339050,149.758301 80.157516,150.428467 
	C78.654526,151.927429 77.151527,153.426392 75.383408,155.116852 
z"/>
<path fill="#573435" opacity="1.000000" stroke="none" 
	d="
M121.052963,186.160904 
	C116.941574,191.080460 112.830185,196.000031 108.248764,200.710663 
	C107.519676,198.384796 107.045868,196.268860 107.036156,194.150772 
	C106.969925,179.713242 106.960815,165.275070 107.037506,150.837662 
	C107.051788,148.149246 106.836212,145.840851 103.817322,144.923386 
	C106.646278,141.665283 109.427505,138.363953 112.323418,135.166489 
	C113.880920,133.446793 115.635185,131.905319 117.979248,130.238403 
	C119.105812,132.004929 119.900047,133.807419 119.947838,135.629471 
	C120.389656,152.471359 120.702583,169.316620 121.052963,186.160904 
z"/>
<path fill="#6D3D35" opacity="1.000000" stroke="none" 
	d="
M146.042603,158.129776 
	C141.926727,163.072601 137.810837,168.015427 133.410995,172.728699 
	C133.085342,168.586929 133.012329,164.674774 133.007721,160.762543 
	C132.992462,147.812042 133.001846,134.861511 133.001801,121.910988 
	C133.001801,120.168121 133.001816,118.425255 133.001816,116.390282 
	C131.081802,116.654900 129.960358,116.809456 128.838913,116.964012 
	C131.659073,113.695023 134.430420,110.382065 137.319046,107.174728 
	C138.874008,105.448189 140.630005,103.902710 142.978699,102.192268 
	C144.441772,104.079132 145.875061,106.041740 145.897842,108.020584 
	C146.081879,124.011414 146.000839,140.005295 145.998749,156.353149 
	C146.012054,157.181976 146.027328,157.655869 146.042603,158.129776 
z"/>
<path fill="#633935" opacity="1.000000" stroke="none" 
	d="
M128.544495,117.119064 
	C129.960358,116.809456 131.081802,116.654900 133.001816,116.390282 
	C133.001816,118.425255 133.001801,120.168121 133.001801,121.910988 
	C133.001846,134.861511 132.992462,147.812042 133.007721,160.762543 
	C133.012329,164.674774 133.085342,168.586929 133.123749,172.922867 
	C132.335007,174.169098 131.549561,174.991592 130.129486,175.998932 
	C129.053284,177.249725 128.611710,178.315674 128.170135,179.381638 
	C125.991753,181.532486 123.813370,183.683334 121.343979,185.997543 
	C120.702583,169.316620 120.389656,152.471359 119.947838,135.629471 
	C119.900047,133.807419 119.105812,132.004929 118.264359,130.073944 
	C121.330620,125.727722 124.790337,121.500916 128.544495,117.119064 
z"/>
<path fill="#2E2233" opacity="1.000000" stroke="none" 
	d="
M61.537186,55.232479 
	C66.708702,55.136120 65.965363,58.868290 65.971512,61.896477 
	C66.022545,87.013687 66.000793,112.131050 66.000328,137.248367 
	C66.000259,141.074173 66.350258,144.947601 65.844589,148.705643 
	C65.593277,150.573380 63.768524,152.229401 62.252342,154.016495 
	C60.210827,152.972137 58.572536,151.892517 57.180199,150.147949 
	C57.607105,148.851654 57.945576,148.220474 57.946365,147.588882 
	C57.981651,119.289200 58.016792,90.989349 57.899288,62.690159 
	C57.894043,61.425968 56.469734,60.167664 55.706406,58.906620 
	C57.573944,57.753624 59.441483,56.600628 61.537186,55.232479 
z"/>
<path fill="#914A34" opacity="1.000000" stroke="none" 
	d="
M235.898605,76.952774 
	C236.882202,75.824829 237.865799,74.696884 239.296600,73.284569 
	C240.161407,73.001816 240.579025,73.003426 241.063965,73.417450 
	C241.420883,76.286118 241.960541,78.742119 241.963104,81.198677 
	C242.014328,130.766434 242.003860,180.334274 242.005783,229.902084 
	C240.940018,230.298523 239.874252,230.694962 238.419891,230.753113 
	C237.687531,227.124283 237.049133,223.834167 237.044418,220.543137 
	C236.978836,174.740204 237.014282,128.937149 236.953308,83.134209 
	C236.950562,81.073265 236.265732,79.013229 235.898605,76.952774 
z"/>
<path fill="#974E37" opacity="1.000000" stroke="none" 
	d="
M196.114700,102.222519 
	C195.479401,102.960068 194.844086,103.697609 193.828903,104.763092 
	C193.190582,105.493607 192.932159,105.896179 192.673721,106.298752 
	C192.673721,106.298752 192.607086,106.577301 192.178055,106.586594 
	C191.566193,107.105789 191.383362,107.615685 191.200546,108.125587 
	C191.200546,108.125587 191.171066,108.162109 190.812592,108.193985 
	C190.012878,108.904625 189.571625,109.583389 189.130356,110.262154 
	C189.048325,110.555199 188.881927,110.787903 188.075577,110.838142 
	C187.013657,108.889862 186.086502,107.067841 186.068466,105.236877 
	C185.941177,92.315277 186.157776,79.388771 185.904999,66.470863 
	C185.828979,62.586075 184.612595,58.723606 183.918610,54.850914 
	C186.136475,52.255093 188.070053,49.309986 190.675034,47.189793 
	C192.332138,45.841072 194.985855,45.716862 197.599442,45.566391 
	C198.054352,64.093567 198.102509,82.097931 198.150665,100.102295 
	C198.150665,100.102295 198.104584,100.063110 197.764359,100.117020 
	C196.987656,100.854797 196.551178,101.538658 196.114700,102.222519 
z"/>
<path fill="#4E3035" opacity="1.000000" stroke="none" 
	d="
M103.534897,145.101166 
	C106.836212,145.840851 107.051788,148.149246 107.037506,150.837662 
	C106.960815,165.275070 106.969925,179.713242 107.036156,194.150772 
	C107.045868,196.268860 107.519676,198.384796 107.967422,200.904510 
	C108.047668,201.547882 107.889389,201.749344 107.223007,202.105911 
	C106.529068,202.619278 106.293388,202.938354 106.057709,203.257431 
	C102.917625,206.788101 99.777550,210.318787 96.322769,213.520813 
	C96.005600,196.498795 96.005730,179.805420 95.997772,163.112030 
	C95.996605,160.667603 96.546463,157.843262 92.642159,157.901138 
	C96.178932,153.693741 99.715698,149.486359 103.534897,145.101166 
z"/>
<path fill="#A35337" opacity="1.000000" stroke="none" 
	d="
M198.460144,99.968506 
	C198.102509,82.097931 198.054352,64.093567 198.008789,45.632980 
	C202.370819,45.125706 206.730255,45.074657 211.560211,45.462555 
	C212.236572,46.875629 212.606064,47.846878 212.623245,48.824322 
	C212.824677,60.289280 212.973267,71.755165 213.135773,83.220802 
	C213.068207,83.534172 212.901764,83.780823 212.082275,84.062302 
	C211.049377,84.837120 210.570618,85.510361 210.091858,86.183609 
	C206.317780,90.733971 202.543701,95.284340 198.460144,99.968506 
z"/>
<path fill="#774136" opacity="1.000000" stroke="none" 
	d="
M146.000702,155.998245 
	C146.000839,140.005295 146.081879,124.011414 145.897842,108.020584 
	C145.875061,106.041740 144.441772,104.079132 143.266739,102.032486 
	C146.331940,97.724007 149.792496,93.492050 153.970795,89.142693 
	C155.459366,90.737694 156.876724,92.441750 156.898956,94.163818 
	C157.080368,108.214333 156.927689,122.269051 157.087189,136.320099 
	C157.109039,138.245193 158.290375,140.157135 158.949280,142.406677 
	C159.011047,143.178787 159.058441,143.619385 159.105835,144.059967 
	C159.105850,144.059967 159.074097,144.046600 158.723846,144.097565 
	C157.958038,144.859009 157.542496,145.569504 157.126953,146.280014 
	C156.335159,147.126862 155.543365,147.973709 154.116974,149.002930 
	C153.043320,150.233719 152.604279,151.282150 152.165222,152.330582 
	C152.087738,152.605377 151.932114,152.824738 151.150208,153.080750 
	C150.111176,153.873642 149.620270,154.574432 149.129364,155.275238 
	C149.046982,155.559311 148.883438,155.784378 148.067902,155.990631 
	C146.998291,156.019974 146.499496,156.009109 146.000702,155.998245 
z"/>
<path fill="#964D35" opacity="1.000000" stroke="none" 
	d="
M242.360748,229.973328 
	C242.003860,180.334274 242.014328,130.766434 241.963104,81.198677 
	C241.960541,78.742119 241.420883,76.286118 241.065018,73.053802 
	C240.974762,71.793190 240.950806,71.308624 240.926849,70.824059 
	C240.977020,70.516472 241.128067,70.270927 241.899719,70.020599 
	C242.634735,69.952484 242.849976,69.951187 243.434967,70.090179 
	C244.203140,72.085777 244.937622,73.939293 244.947510,75.796684 
	C245.037109,92.620956 244.968231,109.446060 245.043945,126.270470 
	C245.052551,128.181778 245.665253,130.090347 245.998016,132.309509 
	C246.003586,133.031021 246.008972,133.443207 246.014374,133.855408 
	C245.868073,134.203384 245.721786,134.551346 245.862457,135.422333 
	C246.432938,138.229111 246.957916,140.512314 246.963058,142.796692 
	C247.021317,168.677628 246.972458,194.558807 247.048370,220.439651 
	C247.054993,222.698013 247.741745,224.954361 248.112595,227.211670 
	C246.313629,228.155960 244.514664,229.100266 242.360748,229.973328 
z"/>
<path fill="#3D2934" opacity="1.000000" stroke="none" 
	d="
M84.142662,228.353409 
	C82.680717,229.822052 81.218773,231.290695 79.119026,232.895065 
	C77.986824,233.020813 77.492424,233.010834 76.713249,232.741165 
	C75.952744,230.260223 75.086960,228.042755 75.065308,225.817078 
	C74.935905,212.515762 75.015182,199.212524 74.987137,185.910004 
	C74.982437,183.682648 75.655693,180.915070 71.903702,180.981018 
	C73.837753,178.843399 75.771812,176.705780 78.082550,174.127472 
	C78.622978,173.390579 78.786720,173.094406 78.950455,172.798218 
	C79.415359,172.263290 79.880257,171.728363 80.952675,171.041412 
	C82.847351,170.426056 84.134499,169.962723 86.466522,169.123276 
	C84.393784,189.405045 88.543968,208.984589 84.142662,228.353409 
z"/>
<path fill="#8F4B38" opacity="1.000000" stroke="none" 
	d="
M183.614273,55.015392 
	C184.612595,58.723606 185.828979,62.586075 185.904999,66.470863 
	C186.157776,79.388771 185.941177,92.315277 186.068466,105.236877 
	C186.086502,107.067841 187.013657,108.889862 187.875763,110.925438 
	C183.849823,116.177505 179.468155,121.220146 174.694489,125.819832 
	C174.863190,123.681755 175.897919,121.990273 175.910950,120.290955 
	C176.035156,104.079384 175.993149,87.866470 175.980576,71.653969 
	C175.978455,68.923561 174.983734,67.171288 171.824448,67.801712 
	C175.652954,63.594433 179.481445,59.387154 183.614273,55.015392 
z"/>
<path fill="#442C34" opacity="1.000000" stroke="none" 
	d="
M84.423088,228.143097 
	C88.543968,208.984589 84.393784,189.405045 86.466522,169.123276 
	C84.134499,169.962723 82.847351,170.426056 81.189003,170.914474 
	C84.585678,166.710419 88.353546,162.481293 92.381790,158.076660 
	C96.546463,157.843262 95.996605,160.667603 95.997772,163.112030 
	C96.005730,179.805420 96.005600,196.498795 96.020767,213.675201 
	C92.256813,218.749741 88.480164,223.341263 84.423088,228.143097 
z"/>
<path fill="#442C34" opacity="1.000000" stroke="none" 
	d="
M181.015091,233.854248 
	C178.644287,233.883301 176.273468,233.912338 173.454346,233.449768 
	C173.004105,207.735291 173.007401,182.512436 172.991852,157.289566 
	C172.990372,154.884171 173.671173,152.017929 169.830643,151.788055 
	C171.114273,150.392776 172.397903,148.997513 174.152023,147.266907 
	C176.121552,146.082092 177.620575,145.232620 179.985779,143.892303 
	C179.985779,147.962234 179.985779,151.213669 179.639069,154.775162 
	C179.158035,169.607498 179.010086,184.129700 178.952057,198.652267 
	C178.950211,199.110474 179.874817,199.572372 180.506760,199.953705 
	C180.645996,199.874878 180.946213,199.985687 180.814590,200.298492 
	C180.776123,200.817474 180.869293,201.023651 180.972565,201.683975 
	C180.993484,212.710159 181.004288,223.282211 181.015091,233.854248 
z"/>
<path fill="#8C4936" opacity="1.000000" stroke="none" 
	d="
M235.631897,77.116966 
	C236.265732,79.013229 236.950562,81.073265 236.953308,83.134209 
	C237.014282,128.937149 236.978836,174.740204 237.044418,220.543137 
	C237.049133,223.834167 237.687531,227.124283 238.078918,230.856018 
	C236.332901,231.854401 234.539261,232.411606 232.374313,232.487030 
	C231.668961,220.097305 231.293167,208.190231 231.036118,196.280609 
	C230.984680,193.897812 230.817307,191.905746 227.990570,191.473877 
	C236.103790,184.831604 234.508087,176.507324 232.939728,167.744843 
	C233.308701,162.031967 233.923141,156.759598 233.952576,151.483978 
	C234.068329,130.732651 234.038834,109.980133 233.953735,89.228516 
	C233.942337,86.449028 233.304626,83.672104 232.956940,80.893997 
	C233.759689,79.689713 234.562439,78.485443 235.631897,77.116966 
z"/>
<path fill="#804436" opacity="1.000000" stroke="none" 
	d="
M158.934906,142.075165 
	C158.290375,140.157135 157.109039,138.245193 157.087189,136.320099 
	C156.927689,122.269051 157.080368,108.214333 156.898956,94.163818 
	C156.876724,92.441750 155.459366,90.737694 154.270157,88.987259 
	C156.148605,86.171783 158.445435,83.394341 161.190918,80.255737 
	C162.051544,79.241539 162.463531,78.588478 162.875519,77.935425 
	C162.875519,77.935425 162.895676,77.884773 163.340866,77.929245 
	C167.439301,77.869621 166.997742,80.499039 166.998688,82.810120 
	C167.004395,96.760269 167.042694,110.710617 166.973450,124.660416 
	C166.956009,128.175735 166.585693,131.689285 166.377548,135.203644 
	C166.377548,135.203644 166.217514,135.255356 165.909698,135.356934 
	C165.445099,136.063644 165.288330,136.668762 165.131561,137.273865 
	C164.333969,138.123962 163.536377,138.974060 162.138962,139.984344 
	C161.117630,140.817749 160.696106,141.490982 160.274582,142.164215 
	C160.274582,142.164215 160.313431,142.274857 159.955841,142.209290 
	C159.377151,142.120865 159.156021,142.098007 158.934906,142.075165 
z"/>
<path fill="#A55336" opacity="1.000000" stroke="none" 
	d="
M260.008636,219.934570 
	C260.008636,219.934570 259.601990,220.039490 259.152222,220.158249 
	C258.478790,220.539886 258.255127,220.802750 258.031464,221.065613 
	C258.031464,221.065613 258.081543,221.035309 257.767822,221.073700 
	C256.973602,221.713257 256.493073,222.314407 256.012543,222.915558 
	C256.012543,222.915558 255.606873,223.044022 255.034332,223.029755 
	C253.975616,223.001297 253.489410,222.987091 253.002502,222.505936 
	C253.005096,194.041779 253.008408,166.044556 253.011719,138.047348 
	C254.812424,138.960770 256.613129,139.874191 258.858887,141.135406 
	C259.530487,141.700729 259.794739,141.852936 260.096619,141.939804 
	C260.096619,141.939804 260.070221,141.880280 260.058716,142.352341 
	C260.033722,167.878036 260.020264,192.931656 259.996277,218.310455 
	C259.993378,219.068619 260.001007,219.501587 260.008636,219.934570 
z"/>
<path fill="#332433" opacity="1.000000" stroke="none" 
	d="
M71.616898,181.149139 
	C75.655693,180.915070 74.982437,183.682648 74.987137,185.910004 
	C75.015182,199.212524 74.935905,212.515762 75.065308,225.817078 
	C75.086960,228.042755 75.952744,230.260223 76.703476,233.090607 
	C76.976616,234.166428 76.974762,234.633087 76.972916,235.099762 
	C72.960724,235.050125 68.948532,235.000473 64.470566,234.464432 
	C64.003189,221.820343 64.095947,209.661118 63.900734,197.506516 
	C63.870613,195.631165 62.518230,193.777069 61.777344,191.913116 
	C64.961594,188.381180 68.145851,184.849228 71.616898,181.149139 
z"/>
<path fill="#392733" opacity="1.000000" stroke="none" 
	d="
M169.835022,151.830963 
	C173.671173,152.017929 172.990372,154.884171 172.991852,157.289566 
	C173.007401,182.512436 173.004105,207.735291 173.011490,233.414261 
	C170.972122,233.896393 168.927307,233.922424 166.442917,233.458008 
	C166.002319,210.414520 166.010025,187.861465 165.987396,165.308441 
	C165.985016,162.931656 166.738098,160.020157 162.852753,159.812378 
	C164.118088,158.406738 165.383423,157.001083 167.121887,155.267975 
	C168.365051,153.936966 169.135056,152.933395 169.905060,151.929840 
	C169.905060,151.929840 169.839417,151.873871 169.835022,151.830963 
z"/>
<path fill="#AF5736" opacity="1.000000" stroke="none" 
	d="
M260.006805,217.985291 
	C260.020264,192.931656 260.033722,167.878036 260.090820,142.347076 
	C260.481323,141.896118 260.754211,142.052048 261.179413,142.831512 
	C261.964325,143.520157 262.522919,143.714844 263.081512,143.909515 
	C263.081512,143.909515 263.040222,144.001266 263.153320,144.179596 
	C263.531464,144.554596 263.796478,144.751282 264.061493,144.947952 
	C264.061493,144.947952 264.001068,144.998779 264.136078,145.189606 
	C264.472626,145.656006 264.736267,145.844986 265.061951,145.947372 
	C265.061951,145.947372 265.002136,146.000259 265.136597,146.190277 
	C265.472656,146.655991 265.736328,146.845032 266.062134,146.947449 
	C266.062134,146.947449 266.002014,147.000153 266.136475,147.190201 
	C266.472504,147.656052 266.736267,147.845108 267.062225,147.947418 
	C267.062225,147.947418 267.001831,148.000031 267.136230,148.190170 
	C267.472015,148.656250 267.735779,148.845200 268.061829,148.947128 
	C268.061829,148.947128 268.087433,148.900986 268.064575,149.381912 
	C268.071777,170.608185 268.101807,191.353546 268.131866,212.098892 
	C268.131866,212.098892 268.090179,212.017731 267.757690,212.087494 
	C266.980865,212.836914 266.536499,213.516571 266.092133,214.196228 
	C266.051270,214.516724 265.896729,214.767044 265.071106,215.048615 
	C264.052826,215.838745 263.591949,216.527481 263.131073,217.216202 
	C263.076599,217.529541 262.918427,217.776428 262.076843,217.987854 
	C261.000366,218.007660 260.503601,217.996475 260.006805,217.985291 
z"/>
<path fill="#894836" opacity="1.000000" stroke="none" 
	d="
M166.705261,135.270172 
	C166.585693,131.689285 166.956009,128.175735 166.973450,124.660416 
	C167.042694,110.710617 167.004395,96.760269 166.998688,82.810120 
	C166.997742,80.499039 167.439301,77.869621 163.367828,77.925194 
	C164.886810,75.790733 166.824036,73.704788 169.206482,71.253433 
	C170.050186,70.230057 170.448669,69.572098 170.847137,68.914139 
	C170.847137,68.914139 170.909744,68.882202 171.145660,68.797081 
	C171.644287,68.509384 171.831070,68.251755 171.941910,67.939064 
	C171.941910,67.939064 171.840134,67.906952 171.832291,67.854332 
	C174.983734,67.171288 175.978455,68.923561 175.980576,71.653969 
	C175.993149,87.866470 176.035156,104.079384 175.910950,120.290955 
	C175.897919,121.990273 174.863190,123.681755 174.350555,125.769333 
	C174.398651,126.161797 174.309586,126.238815 173.972153,126.358063 
	C173.465759,127.072815 173.296799,127.668327 173.127838,128.263840 
	C171.096222,130.621460 169.064606,132.979080 166.705261,135.270172 
z"/>
<path fill="#9C4F35" opacity="1.000000" stroke="none" 
	d="
M252.689392,137.886322 
	C253.008408,166.044556 253.005096,194.041779 252.824402,222.750061 
	C252.110718,224.256119 251.574417,225.051132 251.038116,225.846146 
	C250.277420,226.248505 249.516724,226.650879 248.434311,227.132446 
	C247.741745,224.954361 247.054993,222.698013 247.048370,220.439651 
	C246.972458,194.558807 247.021317,168.677628 246.963058,142.796692 
	C246.957916,140.512314 246.432938,138.229111 246.079803,135.543015 
	C248.129135,136.002213 250.248108,136.863770 252.689392,137.886322 
z"/>
<path fill="#292033" opacity="1.000000" stroke="none" 
	d="
M147.879395,176.833862 
	C150.279236,173.964996 152.679077,171.096146 155.790680,168.102875 
	C157.335251,169.659302 158.878387,171.334122 158.892685,173.021896 
	C159.064499,193.310089 159.009918,213.600220 159.014450,233.889832 
	C156.642502,233.911163 154.270538,233.932480 151.451416,233.469711 
	C151.003036,215.933212 150.999069,198.880798 151.003937,181.828400 
	C151.004593,179.498138 151.384445,176.958466 147.879395,176.833862 
z"/>
<path fill="#332433" opacity="1.000000" stroke="none" 
	d="
M159.450104,233.923508 
	C159.009918,213.600220 159.064499,193.310089 158.892685,173.021896 
	C158.878387,171.334122 157.335251,169.659302 156.061172,167.919296 
	C156.624466,166.770828 157.629059,165.681534 159.082413,164.254211 
	C159.990906,163.263504 160.450623,162.610809 160.910339,161.958115 
	C160.910355,161.958115 160.937332,161.920059 161.168304,161.819901 
	C161.657745,161.530548 161.833267,161.282608 161.925858,160.975937 
	C161.925858,160.975937 161.943283,160.942139 162.169678,160.830383 
	C162.655884,160.526733 162.834305,160.276703 162.931320,159.968582 
	C162.931320,159.968582 162.861649,159.906021 162.857208,159.859192 
	C166.738098,160.020157 165.985016,162.931656 165.987396,165.308441 
	C166.010025,187.861465 166.002319,210.414520 166.006332,233.424438 
	C163.968124,233.906601 161.926941,233.931885 159.450104,233.923508 
z"/>
<path fill="#1F1C33" opacity="1.000000" stroke="none" 
	d="
M43.015503,74.002495 
	C45.805939,70.429764 48.596375,66.857033 51.852791,63.506889 
	C52.545723,65.190651 52.968048,66.651489 52.970505,68.113037 
	C53.011303,92.381775 53.022919,116.650665 52.950535,140.919250 
	C52.945286,142.680389 52.244064,144.439453 51.866425,146.199478 
	C48.911808,142.373505 45.957188,138.547531 43.435001,134.354477 
	C44.910931,132.701447 46.847816,131.425903 46.862900,130.127991 
	C47.064804,112.758293 46.949764,95.385201 47.044548,78.013672 
	C47.060905,75.015907 46.025658,73.668716 43.015503,74.002495 
z"/>
<path fill="#1F1C33" opacity="1.000000" stroke="none" 
	d="
M147.876541,176.876801 
	C151.384445,176.958466 151.004593,179.498138 151.003937,181.828400 
	C150.999069,198.880798 151.003036,215.933212 151.007751,233.444153 
	C148.311691,233.921112 145.612091,233.939499 142.459137,233.477493 
	C142.004242,219.275681 142.001251,205.554260 142.002563,191.832855 
	C142.002777,189.519180 142.417145,186.958115 138.889542,186.856552 
	C140.465485,185.116821 142.041428,183.377090 143.982269,181.230957 
	C144.536423,180.552704 144.725677,180.280853 144.914917,180.008987 
	C144.914917,180.008987 144.921051,179.925659 145.169250,179.829178 
	C145.675583,179.550385 145.842255,179.305756 145.917450,178.998810 
	C145.917450,178.998810 145.926910,178.925552 146.170593,178.827805 
	C146.672195,178.545654 146.841476,178.300125 146.922150,177.993469 
	C146.922150,177.993469 146.931351,177.929810 147.170975,177.828949 
	C147.669174,177.541061 147.841568,177.293900 147.927780,176.986633 
	C147.927780,176.986633 147.873688,176.919724 147.876541,176.876801 
z"/>
<path fill="#171933" opacity="1.000000" stroke="none" 
	d="
M42.866364,74.333900 
	C46.025658,73.668716 47.060905,75.015907 47.044548,78.013672 
	C46.949764,95.385201 47.064804,112.758293 46.862900,130.127991 
	C46.847816,131.425903 44.910931,132.701447 43.455750,133.994934 
	C37.847157,124.857086 37.196735,114.550766 37.322716,104.610374 
	C37.450451,94.531525 37.141258,83.946510 42.866364,74.333900 
z"/>
<path fill="#BA5E3B" opacity="1.000000" stroke="none" 
	d="
M268.452698,211.958664 
	C268.101807,191.353546 268.071777,170.608185 268.089722,149.389862 
	C274.066956,154.165848 277.420685,161.239273 277.743652,168.639328 
	C278.204987,179.208969 279.976929,190.186783 275.029572,200.364456 
	C273.129791,204.272675 270.869507,208.005615 268.452698,211.958664 
z"/>
<path fill="#261E32" opacity="1.000000" stroke="none" 
	d="
M51.990738,146.377899 
	C52.244064,144.439453 52.945286,142.680389 52.950535,140.919250 
	C53.022919,116.650665 53.011303,92.381775 52.970505,68.113037 
	C52.968048,66.651489 52.545723,65.190651 52.147552,63.342934 
	C53.062576,61.731991 54.148823,60.507595 55.470734,59.094910 
	C56.469734,60.167664 57.894043,61.425968 57.899288,62.690159 
	C58.016792,90.989349 57.981651,119.289200 57.946365,147.588882 
	C57.945576,148.220474 57.607105,148.851654 57.127937,149.797745 
	C55.980389,149.620361 55.131050,149.128235 53.992966,148.138672 
	C53.401390,147.457199 53.098560,147.273163 52.795731,147.089142 
	C52.525253,146.967194 52.298359,146.789581 51.990738,146.377899 
z"/>
<path fill="#844637" opacity="1.000000" stroke="none" 
	d="
M220.737366,112.911713 
	C221.980606,109.913139 223.590454,107.004448 224.354431,103.888374 
	C224.999023,101.259300 225.711624,97.777840 224.534286,95.757492 
	C222.291870,91.909470 223.140717,89.590477 226.891785,87.111755 
	C228.392792,88.525993 229.885437,90.056664 229.896347,91.597832 
	C230.049286,113.179214 230.059280,134.762497 229.893280,156.343674 
	C229.879211,158.171906 228.359894,159.988541 227.521347,161.602921 
	C227.502808,161.395279 227.816010,161.134048 227.734283,160.906555 
	C227.457077,160.386398 227.183365,160.239349 226.794098,160.337418 
	C226.756760,160.436920 226.547241,160.401230 226.606537,160.212677 
	C226.421600,160.109589 226.177399,160.195053 225.610840,160.186462 
	C224.155731,159.481155 223.022980,158.869888 222.118271,157.923798 
	C222.895599,156.269470 223.908615,154.954605 223.921875,153.629745 
	C224.044968,141.337708 224.093018,129.042053 223.853912,116.753464 
	C223.828613,115.453163 221.823822,114.191368 220.737366,112.911713 
z"/>
<path fill="#A55336" opacity="1.000000" stroke="none" 
	d="
M262.918884,68.000900 
	C262.918884,68.000900 263.034119,68.396004 262.887939,68.960075 
	C262.162903,72.069664 261.130829,74.606964 261.084442,77.162140 
	C260.894531,87.632729 260.861206,98.112038 261.099213,108.580658 
	C261.164429,111.448860 262.374359,114.291054 263.058990,117.145187 
	C261.776001,119.220634 260.493011,121.296082 258.785583,123.732971 
	C258.138336,124.518028 257.915497,124.941666 257.692657,125.365295 
	C257.692657,125.365295 257.608826,125.703308 257.046478,125.479385 
	C255.656525,123.691887 254.124298,122.135071 254.109222,120.563683 
	C253.938858,102.819687 253.908951,85.072250 254.140274,67.329628 
	C254.164032,65.507935 256.122955,63.711472 257.183899,61.903297 
	C258.391907,63.011456 259.599884,64.119614 260.956848,65.832161 
	C261.710175,66.958000 262.314545,67.479446 262.918884,68.000900 
z"/>
<path fill="#131732" opacity="1.000000" stroke="none" 
	d="
M138.879883,186.897949 
	C142.417145,186.958115 142.002777,189.519180 142.002563,191.832855 
	C142.001251,205.554260 142.004242,219.275681 142.010284,233.456909 
	C131.050903,234.134262 133.157043,234.547073 133.031754,225.019165 
	C132.909470,215.721436 132.889603,206.418259 133.099319,197.123657 
	C133.143127,195.181763 134.387726,193.266968 135.713181,191.033752 
	C136.870743,189.816772 137.394089,188.905731 137.917435,187.994690 
	C137.917435,187.994690 137.934387,187.918472 138.181824,187.831146 
	C138.689728,187.562225 138.854187,187.316391 138.922623,187.006332 
	C138.922623,187.006332 138.870239,186.939362 138.879883,186.897949 
z"/>
<path fill="#292033" opacity="1.000000" stroke="none" 
	d="
M61.540844,192.135437 
	C62.518230,193.777069 63.870613,195.631165 63.900734,197.506516 
	C64.095947,209.661118 64.003189,221.820343 64.009338,234.435913 
	C60.979992,234.914124 57.946098,234.934479 54.457211,234.468872 
	C54.001629,232.159256 54.063725,230.333054 53.989769,228.512375 
	C53.641541,219.939209 53.255997,211.367523 52.883770,202.795319 
	C55.690632,199.316132 58.497486,195.836929 61.540844,192.135437 
z"/>
<path fill="#A35337" opacity="1.000000" stroke="none" 
	d="
M257.055145,61.645813 
	C256.122955,63.711472 254.164032,65.507935 254.140274,67.329628 
	C253.908951,85.072250 253.938858,102.819687 254.109222,120.563683 
	C254.124298,122.135071 255.656525,123.691887 256.875092,125.510231 
	C254.798630,127.864304 252.331207,129.963623 249.462006,132.063263 
	C249.060226,132.063599 248.951416,131.951050 248.965576,131.487335 
	C248.986862,111.140770 248.987106,91.257935 249.008926,71.375114 
	C249.011993,68.579048 249.076324,65.816216 244.989197,66.005417 
	C244.932922,65.940178 244.811737,65.817650 244.811737,65.817650 
	C247.456406,63.268929 250.101074,60.720207 253.084595,58.744457 
	C254.009705,59.521713 254.595932,59.725998 255.182175,59.930286 
	C255.763580,60.416298 256.344971,60.902309 257.055145,61.645813 
z"/>
<path fill="#AF5736" opacity="1.000000" stroke="none" 
	d="
M213.429413,83.051514 
	C212.973267,71.755165 212.824677,60.289280 212.623245,48.824322 
	C212.606064,47.846878 212.236572,46.875629 212.021484,45.528168 
	C213.788818,45.363506 215.565399,45.572178 217.949646,46.178001 
	C220.027298,46.417706 221.497284,46.260258 222.967285,46.102810 
	C223.146881,46.081966 223.326477,46.061123 223.910614,46.276920 
	C224.545181,46.725826 224.810883,46.874195 225.112274,46.958672 
	C225.112274,46.958672 225.037628,46.945492 225.033386,47.388603 
	C225.583832,54.337261 226.138489,60.842812 226.693161,67.348358 
	C226.693161,67.348358 226.464142,67.475716 226.107071,67.423546 
	C225.607590,67.680717 225.465179,67.990059 225.322784,68.299408 
	C225.322784,68.299408 225.243057,68.346741 224.936218,68.373611 
	C224.306076,69.346703 223.982773,70.292923 223.659454,71.239151 
	C223.659454,71.239151 223.465439,71.394554 223.066803,71.432747 
	C222.485001,72.052444 222.301834,72.633957 222.118668,73.215469 
	C222.062347,73.531235 221.900909,73.778313 221.078064,74.052963 
	C220.045410,74.828209 219.569061,75.507202 219.092697,76.186203 
	C217.302811,78.418213 215.512924,80.650223 213.429413,83.051514 
z"/>
<path fill="#4E3035" opacity="1.000000" stroke="none" 
	d="
M83.365967,93.017715 
	C82.708786,78.137794 82.357254,63.096607 82.010323,47.600319 
	C83.753929,46.784260 85.492935,46.423309 87.864624,46.294334 
	C89.331123,48.265873 90.851181,49.991455 90.886917,51.747257 
	C91.111755,62.793205 91.006577,73.845871 91.010490,84.896317 
	C88.564201,87.549698 86.117905,90.203072 83.365967,93.017715 
z"/>
<path fill="#774136" opacity="1.000000" stroke="none" 
	d="
M220.483673,113.046890 
	C221.823822,114.191368 223.828613,115.453163 223.853912,116.753464 
	C224.093018,129.042053 224.044968,141.337708 223.921875,153.629745 
	C223.908615,154.954605 222.895599,156.269470 221.717865,157.836411 
	C218.953659,157.638626 216.817917,157.193436 214.602020,156.520630 
	C214.473221,155.947464 214.571777,155.650818 214.909668,154.966888 
	C215.219406,143.860580 215.529648,133.190430 215.525879,122.520409 
	C215.525452,121.318428 213.751297,120.117081 212.799667,118.915436 
	C213.607086,118.342438 214.414505,117.769440 215.825195,117.042412 
	C216.917175,116.498535 217.405884,116.108681 217.894592,115.718826 
	C218.673035,114.873238 219.451508,114.027649 220.483673,113.046890 
z"/>
<path fill="#894836" opacity="1.000000" stroke="none" 
	d="
M227.539886,161.810562 
	C228.359894,159.988541 229.879211,158.171906 229.893280,156.343674 
	C230.059280,134.762497 230.049286,113.179214 229.896347,91.597832 
	C229.885437,90.056664 228.392792,88.525993 227.166260,86.933548 
	C228.607819,84.982658 230.472214,83.088661 232.646774,81.044327 
	C233.304626,83.672104 233.942337,86.449028 233.953735,89.228516 
	C234.038834,109.980133 234.068329,130.732651 233.952576,151.483978 
	C233.923141,156.759598 233.308701,162.031967 232.628113,167.604263 
	C230.708740,165.871994 229.124313,163.841278 227.539886,161.810562 
z"/>
<path fill="#6D3D35" opacity="1.000000" stroke="none" 
	d="
M212.421448,118.948387 
	C213.751297,120.117081 215.525452,121.318428 215.525879,122.520409 
	C215.529648,133.190430 215.219406,143.860580 214.469101,154.975983 
	C211.289001,155.126556 208.641632,154.831863 205.994003,154.134644 
	C206.180573,149.028198 206.671631,144.311798 206.479568,139.623383 
	C206.221878,133.333160 205.436020,127.064568 204.876907,120.786682 
	C207.265686,120.184891 209.654449,119.583115 212.421448,118.948387 
z"/>
<path fill="#B25D3D" opacity="1.000000" stroke="none" 
	d="
M263.380554,116.978874 
	C262.374359,114.291054 261.164429,111.448860 261.099213,108.580658 
	C260.861206,98.112038 260.894531,87.632729 261.084442,77.162140 
	C261.130829,74.606964 262.162903,72.069664 262.914368,69.164154 
	C265.201599,73.765533 268.310974,78.550583 269.228027,83.724236 
	C271.265869,95.220558 270.529114,106.621597 263.380554,116.978874 
z"/>
<path fill="#964D35" opacity="1.000000" stroke="none" 
	d="
M140.095291,82.196671 
	C139.623001,82.742142 139.150696,83.287613 138.100861,83.975769 
	C137.026901,84.788338 136.530487,85.458221 136.034088,86.128098 
	C136.034088,86.128105 136.068268,86.037483 135.784958,85.835968 
	C135.297714,83.845253 135.093781,82.056053 134.918503,79.782227 
	C134.969604,67.923775 134.992050,56.549938 135.014496,45.176102 
	C137.717712,45.129383 140.420944,45.082661 143.566559,45.563995 
	C143.715164,57.142189 143.421387,68.192322 143.127594,79.242462 
	C143.057709,79.542992 142.895493,79.780479 142.090576,80.054146 
	C141.058548,80.834465 140.576920,81.515572 140.095291,82.196671 
z"/>
<path fill="#774136" opacity="1.000000" stroke="none" 
	d="
M224.015839,233.828979 
	C220.984680,233.863907 217.953506,233.898849 214.535065,233.502670 
	C214.288437,230.012299 214.582733,226.950897 214.539764,223.894226 
	C214.428406,215.969925 214.168564,208.047745 214.327728,200.081146 
	C216.113541,199.321289 217.539627,198.605011 218.931000,197.890686 
	C218.896255,197.892624 218.879959,197.824966 219.284729,197.878098 
	C223.749451,197.985886 223.990234,200.843842 223.995163,203.837769 
	C224.011627,213.834824 224.010330,223.831909 224.015839,233.828979 
z"/>
<path fill="#633935" opacity="1.000000" stroke="none" 
	d="
M204.530319,120.800827 
	C205.436020,127.064568 206.221878,133.333160 206.479568,139.623383 
	C206.671631,144.311798 206.180573,149.028198 205.549469,154.211700 
	C202.400421,154.620422 199.695679,154.549561 196.991821,154.042725 
	C196.995743,151.636337 197.069550,149.663086 196.989624,147.696045 
	C196.637985,139.042618 196.241943,130.390991 195.862000,121.738716 
	C198.635910,121.430809 201.409821,121.122894 204.530319,120.800827 
z"/>
<path fill="#844637" opacity="1.000000" stroke="none" 
	d="
M224.340179,233.776978 
	C224.010330,223.831909 224.011627,213.834824 223.995163,203.837769 
	C223.990234,200.843842 223.749451,197.985886 219.481537,197.622345 
	C220.453186,196.844742 221.632782,196.376022 223.128723,195.902313 
	C223.944290,195.560791 224.443542,195.224289 224.935089,194.936920 
	C224.927414,194.986038 224.917786,194.885574 225.220947,194.881439 
	C225.946838,194.509659 226.369583,194.142044 226.864014,193.882538 
	C226.935669,193.990631 226.768478,193.792130 227.049988,193.680878 
	C227.508377,193.018738 227.685257,192.467880 227.830841,191.884445 
	C227.799545,191.851883 227.819916,191.763901 227.819916,191.763901 
	C230.817307,191.905746 230.984680,193.897812 231.036118,196.280609 
	C231.293167,208.190231 231.668961,220.097305 232.006561,232.430527 
	C229.561584,233.145523 227.113052,233.435257 224.340179,233.776978 
z"/>
<path fill="#633935" opacity="1.000000" stroke="none" 
	d="
M206.013504,233.830231 
	C203.312103,233.868561 200.610703,233.906906 197.458710,233.435272 
	C197.003677,222.364105 196.999237,211.802933 197.440002,201.166382 
	C200.595016,201.028229 203.304840,200.965424 206.011078,201.377380 
	C206.009506,212.511490 206.011505,223.170868 206.013504,233.830231 
z"/>
<path fill="#573435" opacity="1.000000" stroke="none" 
	d="
M91.367172,84.930557 
	C91.006577,73.845871 91.111755,62.793205 90.886917,51.747257 
	C90.851181,49.991455 89.331123,48.265873 88.242294,46.245811 
	C91.377106,45.659363 94.766930,45.353420 98.580658,45.507374 
	C98.705696,53.279984 98.102600,60.597652 98.221512,67.903572 
	C98.293419,72.321312 99.485107,76.720825 100.173660,81.128532 
	C97.357056,82.407288 94.540451,83.686035 91.367172,84.930557 
z"/>
<path fill="#6D3D35" opacity="1.000000" stroke="none" 
	d="
M206.455032,233.883636 
	C206.011505,223.170868 206.009506,212.511490 206.366211,201.320160 
	C207.683350,200.803085 208.641815,200.817978 209.945831,200.854706 
	C210.853775,200.548721 211.416153,200.220901 211.981720,199.930389 
	C211.984909,199.967712 211.918640,199.932800 212.183624,199.956024 
	C212.625488,199.980774 212.802368,199.982300 213.226990,200.015137 
	C213.474747,200.046448 213.968002,200.124710 213.967987,200.124710 
	C214.168564,208.047745 214.428406,215.969925 214.539764,223.894226 
	C214.582733,226.950897 214.288437,230.012299 214.084320,233.449097 
	C211.646088,233.863449 209.271317,233.900253 206.455032,233.883636 
z"/>
<path fill="#774136" opacity="1.000000" stroke="none" 
	d="
M111.015884,45.182938 
	C113.386932,45.141525 115.757973,45.100117 118.567429,45.574753 
	C119.001823,57.329391 118.997826,68.567986 118.588387,79.867332 
	C116.157364,80.234451 114.131767,80.540810 112.106178,80.847176 
	C111.642189,80.873062 111.178192,80.898949 110.437668,80.477402 
	C110.441864,77.904091 110.944458,75.780373 110.965126,73.651970 
	C111.057266,64.163025 111.011696,54.672741 111.015884,45.182938 
z"/>
<path fill="#804436" opacity="1.000000" stroke="none" 
	d="
M118.993820,79.806572 
	C118.997826,68.567986 119.001823,57.329391 119.008247,45.636105 
	C121.383461,45.137833 123.756264,45.094257 126.567200,45.568783 
	C126.999863,57.321922 126.994392,68.556961 126.548355,79.852425 
	C123.736473,79.877426 121.365143,79.841995 118.993820,79.806572 
z"/>
<path fill="#894836" opacity="1.000000" stroke="none" 
	d="
M126.988914,79.791992 
	C126.994392,68.556961 126.999863,57.321922 127.007996,45.631359 
	C129.384644,45.132011 131.758621,45.088192 134.573547,45.110237 
	C134.992050,56.549938 134.969604,67.923775 134.490387,79.695282 
	C131.685394,79.992630 129.337158,79.892311 126.988914,79.791992 
z"/>
<path fill="#261E32" opacity="1.000000" stroke="none" 
	d="
M52.597404,202.979187 
	C53.255997,211.367523 53.641541,219.939209 53.989769,228.512375 
	C54.063725,230.333054 54.001629,232.159256 54.004028,234.441177 
	C51.305912,234.916077 48.605980,234.932709 45.455063,234.465256 
	C44.293762,227.228760 46.832874,220.119522 42.780746,213.734070 
	C45.957516,210.210403 49.134277,206.686737 52.597404,202.979187 
z"/>
<path fill="#4E3035" opacity="1.000000" stroke="none" 
	d="
M181.457275,233.899170 
	C181.004288,223.282211 180.993484,212.710159 181.413147,201.604248 
	C184.228378,201.125671 186.613129,201.180954 188.997742,201.690094 
	C189.002960,212.710892 189.008331,223.277817 189.013702,233.844757 
	C186.642288,233.877884 184.270889,233.910995 181.457275,233.899170 
z"/>
<path fill="#573435" opacity="1.000000" stroke="none" 
	d="
M189.455551,233.893158 
	C189.008331,223.277817 189.002960,212.710892 189.436340,201.613373 
	C192.248337,201.135788 194.621567,201.188782 196.994812,201.241760 
	C196.999237,211.802933 197.003677,222.364105 197.013397,233.379578 
	C194.644943,233.869781 192.271164,233.905655 189.455551,233.893158 
z"/>
<path fill="#A35337" opacity="1.000000" stroke="none" 
	d="
M143.423660,79.065491 
	C143.421387,68.192322 143.715164,57.142189 144.012085,45.636108 
	C146.716522,45.134987 149.417786,45.089817 152.562927,45.568771 
	C153.384506,52.805019 153.762238,59.517143 154.139984,66.229263 
	C150.666565,70.449020 147.193146,74.668770 143.423660,79.065491 
z"/>
<path fill="#1F1C33" opacity="1.000000" stroke="none" 
	d="
M42.505318,213.930435 
	C46.832874,220.119522 44.293762,227.228760 45.006233,234.438263 
	C38.256641,234.895370 31.504902,234.895370 23.394365,234.895370 
	C30.211342,227.378784 36.220619,220.752792 42.505318,213.930435 
z"/>
<path fill="#573435" opacity="1.000000" stroke="none" 
	d="
M195.575027,121.922684 
	C196.241943,130.390991 196.637985,139.042618 196.989624,147.696045 
	C197.069550,149.663086 196.995743,151.636337 196.550049,154.093262 
	C193.735809,154.545715 191.364197,154.511627 188.993027,154.041840 
	C188.995605,148.774582 189.223923,143.927597 188.896561,139.118454 
	C188.751053,136.980850 187.484482,134.919556 186.726746,132.823639 
	C189.580505,129.251312 192.434280,125.678986 195.575027,121.922684 
z"/>
<path fill="#4E3035" opacity="1.000000" stroke="none" 
	d="
M82.369858,147.047058 
	C82.252518,137.627762 82.740005,128.006836 82.461990,118.408104 
	C82.310905,113.191895 80.724449,108.029915 80.079239,102.807182 
	C79.900169,101.357719 80.771797,99.778473 81.530930,98.140297 
	C81.905838,106.054375 81.771049,114.142624 87.154182,120.908104 
	C88.446724,122.532555 90.118080,123.855583 91.816010,126.034851 
	C92.032494,129.857834 92.048187,132.963181 92.063873,136.068542 
	C92.063881,136.068542 92.002907,136.047714 91.824310,136.130737 
	C91.374466,136.378052 91.182610,136.608459 91.070152,136.904984 
	C88.265312,140.221542 85.460472,143.538101 82.369858,147.047058 
z"/>
<path fill="#633935" opacity="1.000000" stroke="none" 
	d="
M100.574326,81.080551 
	C99.485107,76.720825 98.293419,72.321312 98.221512,67.903572 
	C98.102600,60.597652 98.705696,53.279984 99.009781,45.560181 
	C100.730865,45.121353 102.446716,45.089607 104.584534,45.569469 
	C105.008934,57.663288 105.011368,69.245499 105.013802,80.827713 
	C103.667534,80.895996 102.321259,80.964279 100.574326,81.080551 
z"/>
<path fill="#6D3D35" opacity="1.000000" stroke="none" 
	d="
M105.428833,80.881546 
	C105.011368,69.245499 105.008934,57.663288 105.010147,45.626648 
	C106.730713,45.133930 108.447617,45.095650 110.590210,45.120152 
	C111.011696,54.672741 111.057266,64.163025 110.965126,73.651970 
	C110.944458,75.780373 110.441864,77.904091 110.091820,80.428253 
	C108.629623,80.862823 107.236740,80.899101 105.428833,80.881546 
z"/>
<path fill="#BA5E3B" opacity="1.000000" stroke="none" 
	d="
M226.977112,67.262222 
	C226.138489,60.842812 225.583832,54.337261 225.051758,47.355453 
	C229.576477,47.664047 234.125259,48.252823 238.562668,49.309368 
	C241.108658,49.915565 242.106354,51.524651 239.796356,53.903427 
	C235.557251,58.268734 231.433105,62.745682 226.977112,67.262222 
z"/>
<path fill="#4E3035" opacity="1.000000" stroke="none" 
	d="
M186.384933,132.865906 
	C187.484482,134.919556 188.751053,136.980850 188.896561,139.118454 
	C189.223923,143.927597 188.995605,148.774582 188.582520,154.092255 
	C187.361588,154.470306 186.551620,154.362259 185.595001,154.208801 
	C185.049408,154.196487 184.650452,154.229584 183.843201,154.405396 
	C182.285172,154.520447 181.135483,154.492767 179.985779,154.465088 
	C179.985779,151.213669 179.985779,147.962234 179.985779,143.892303 
	C177.620575,145.232620 176.121552,146.082092 174.263443,146.972015 
	C173.898575,146.687439 173.748795,146.230728 173.908020,146.056656 
	C177.933319,141.655792 181.991058,137.284576 186.384933,132.865906 
z"/>
<path fill="#AF5736" opacity="1.000000" stroke="none" 
	d="
M154.413971,66.036148 
	C153.762238,59.517143 153.384506,52.805019 153.008682,45.637367 
	C155.714417,45.134636 158.418243,45.087437 161.565704,45.544838 
	C162.358597,49.419025 162.707840,52.788609 163.057098,56.158192 
	C160.267395,59.386475 157.477661,62.614754 154.413971,66.036148 
z"/>
<path fill="#BA5E3B" opacity="1.000000" stroke="none" 
	d="
M163.363037,56.008224 
	C162.707840,52.788609 162.358597,49.419025 162.011536,45.615692 
	C165.256485,45.181950 168.499237,45.181950 173.071396,45.181950 
	C169.409714,49.339733 166.539352,52.598995 163.363037,56.008224 
z"/>
<path fill="#6D3D35" opacity="1.000000" stroke="none" 
	d="
M92.366882,135.929718 
	C92.048187,132.963181 92.032494,129.857834 92.036179,126.282013 
	C94.270081,126.770470 96.484612,127.729385 99.633003,129.092667 
	C96.977173,131.647461 94.823524,133.719177 92.366882,135.929718 
z"/>
<path fill="#B89389" opacity="1.000000" stroke="none" 
	d="
M126.548355,79.852425 
	C129.337158,79.892311 131.685394,79.992630 134.461731,80.179901 
	C135.093781,82.056053 135.297714,83.845253 135.803940,85.880524 
	C135.660980,87.074165 135.215714,88.021736 134.770462,88.969315 
	C134.335800,88.876656 133.901138,88.783997 133.466476,88.691338 
	C133.226227,86.328392 132.985977,83.965454 132.679504,80.951302 
	C126.223427,80.951302 119.625053,80.951302 112.566429,80.899239 
	C114.131767,80.540810 116.157364,80.234451 118.588387,79.867332 
	C121.365143,79.841995 123.736473,79.877426 126.548355,79.852425 
z"/>
<path fill="#442C34" opacity="1.000000" stroke="none" 
	d="
M169.543182,151.913177 
	C169.135056,152.933395 168.365051,153.936966 167.245483,154.979965 
	C167.657700,153.978439 168.419495,152.937469 169.543182,151.913177 
z"/>
<path fill="#BA5E3B" opacity="1.000000" stroke="none" 
	d="
M251.360535,225.802307 
	C251.574417,225.051132 252.110718,224.256119 252.825119,223.217010 
	C253.489410,222.987091 253.975616,223.001297 254.823578,223.058762 
	C254.017899,223.987503 252.850433,224.872986 251.360535,225.802307 
z"/>
<path fill="#BA5E3B" opacity="1.000000" stroke="none" 
	d="
M223.967194,71.225090 
	C223.982773,70.292923 224.306076,69.346703 224.982300,68.378731 
	C224.981781,69.308334 224.628372,70.259682 223.967194,71.225090 
z"/>
<path fill="#804436" opacity="1.000000" stroke="none" 
	d="
M152.451416,152.148636 
	C152.604279,151.282150 153.043320,150.233719 153.858963,149.138565 
	C153.736252,150.050125 153.236938,151.008408 152.451416,152.148636 
z"/>
<path fill="#1F1C33" opacity="1.000000" stroke="none" 
	d="
M137.554138,187.974060 
	C137.394089,188.905731 136.870743,189.816772 136.013138,190.821411 
	C136.182877,189.927811 136.686859,188.940628 137.554138,187.974060 
z"/>
<path fill="#6D3D35" opacity="1.000000" stroke="none" 
	d="
M128.453842,179.189224 
	C128.611710,178.315674 129.053284,177.249725 129.878510,176.139343 
	C129.753967,177.062225 129.245758,178.029526 128.453842,179.189224 
z"/>
<path fill="#A35337" opacity="1.000000" stroke="none" 
	d="
M246.341217,133.927338 
	C246.008972,133.443207 246.003586,133.031021 246.367615,132.304718 
	C247.475174,131.977417 248.213303,131.964233 248.951416,131.951050 
	C248.951416,131.951050 249.060226,132.063599 249.114655,132.119965 
	C248.335419,132.783981 247.501724,133.391617 246.341217,133.927338 
z"/>
<path fill="#BA5E3B" opacity="1.000000" stroke="none" 
	d="
M222.561188,46.035820 
	C221.497284,46.260258 220.027298,46.417706 218.303238,46.353146 
	C219.417816,46.077038 220.786469,46.022934 222.561188,46.035820 
z"/>
<path fill="#442C34" opacity="1.000000" stroke="none" 
	d="
M68.046570,158.517654 
	C68.650055,158.092758 69.501595,157.904495 70.656265,158.111542 
	C70.973366,158.685669 70.987328,158.864471 71.001289,159.043274 
	C70.099068,158.946945 69.196838,158.850616 68.046570,158.517654 
z"/>
<path fill="#4E3035" opacity="1.000000" stroke="none" 
	d="
M71.352722,159.059357 
	C70.987328,158.864471 70.973366,158.685669 70.933784,158.238861 
	C71.477211,157.672684 72.046257,157.374542 72.949272,157.080444 
	C72.756889,157.748138 72.230522,158.411789 71.352722,159.059357 
z"/>
<path fill="#392733" opacity="1.000000" stroke="none" 
	d="
M160.551758,161.928680 
	C160.450623,162.610809 159.990906,163.263504 159.204193,163.968445 
	C159.315857,163.313538 159.754517,162.606400 160.551758,161.928680 
z"/>
<path fill="#894836" opacity="1.000000" stroke="none" 
	d="
M160.606659,142.294128 
	C160.696106,141.490982 161.117630,140.817749 161.877655,140.117004 
	C161.790375,140.867691 161.364548,141.645874 160.606659,142.294128 
z"/>
<path fill="#442C34" opacity="1.000000" stroke="none" 
	d="
M77.331558,235.109726 
	C76.974762,234.633087 76.976616,234.166428 76.988251,233.350311 
	C77.492424,233.010834 77.986824,233.020813 78.853249,233.058197 
	C78.713577,233.763641 78.201889,234.441666 77.331558,235.109726 
z"/>
<path fill="#A35337" opacity="1.000000" stroke="none" 
	d="
M243.065216,69.949890 
	C242.849976,69.951187 242.634735,69.952484 242.098114,69.923859 
	C242.259491,68.966232 242.742249,68.038513 243.579880,67.019867 
	C243.934753,66.928925 244.074066,67.051292 244.030716,67.358368 
	C243.679993,68.426926 243.372604,69.188408 243.065216,69.949890 
z"/>
<path fill="#442C34" opacity="1.000000" stroke="none" 
	d="
M70.606659,50.887409 
	C70.030075,51.346588 69.113716,51.763321 68.013954,51.970398 
	C68.642670,51.455486 69.454773,51.150223 70.606659,50.887409 
z"/>
<path fill="#BA5E3B" opacity="1.000000" stroke="none" 
	d="
M263.395660,217.073273 
	C263.591949,216.527481 264.052826,215.838745 264.860504,215.131241 
	C264.691620,215.718430 264.175934,216.324387 263.395660,217.073273 
z"/>
<path fill="#B25D3D" opacity="1.000000" stroke="none" 
	d="
M262.903625,67.695343 
	C262.314545,67.479446 261.710175,66.958000 261.097717,66.106812 
	C261.689148,66.314644 262.288757,66.852211 262.903625,67.695343 
z"/>
<path fill="#8F4B38" opacity="1.000000" stroke="none" 
	d="
M170.556396,68.994469 
	C170.448669,69.572098 170.050186,70.230057 169.337021,70.942924 
	C169.436768,70.356827 169.851212,69.715813 170.556396,68.994469 
z"/>
<path fill="#A35337" opacity="1.000000" stroke="none" 
	d="
M240.659760,70.959618 
	C240.950806,71.308624 240.974762,71.793190 240.997681,72.641396 
	C240.579025,73.003426 240.161407,73.001816 239.431732,72.990631 
	C239.544006,72.352440 239.968338,71.723808 240.659760,70.959618 
z"/>
<path fill="#BA5E3B" opacity="1.000000" stroke="none" 
	d="
M219.361359,76.048820 
	C219.569061,75.507202 220.045410,74.828209 220.866180,74.132530 
	C220.683746,74.714378 220.156876,75.312912 219.361359,76.048820 
z"/>
<path fill="#894836" opacity="1.000000" stroke="none" 
	d="
M162.578247,78.000717 
	C162.463531,78.588478 162.051544,79.241539 161.322739,79.943268 
	C161.430923,79.349976 161.855942,78.707993 162.578247,78.000717 
z"/>
<path fill="#A35337" opacity="1.000000" stroke="none" 
	d="
M140.360214,82.050781 
	C140.576920,81.515572 141.058548,80.834465 141.887024,80.136841 
	C141.697632,80.715172 141.161377,81.310036 140.360214,82.050781 
z"/>
<path fill="#B89389" opacity="1.000000" stroke="none" 
	d="
M136.371674,86.323662 
	C136.530487,85.458221 137.026901,84.788338 137.841827,84.064537 
	C137.676666,84.846825 137.192963,85.683022 136.371674,86.323662 
z"/>
<path fill="#AF5736" opacity="1.000000" stroke="none" 
	d="
M210.358734,86.044983 
	C210.570618,85.510361 211.049377,84.837120 211.870178,84.144890 
	C211.683350,84.719391 211.154480,85.312881 210.358734,86.044983 
z"/>
<path fill="#A35337" opacity="1.000000" stroke="none" 
	d="
M196.374542,102.080681 
	C196.551178,101.538658 196.987656,100.854797 197.762360,100.147202 
	C197.611847,100.728592 197.123123,101.333717 196.374542,102.080681 
z"/>
<path fill="#BA5E3B" opacity="1.000000" stroke="none" 
	d="
M256.309387,222.900742 
	C256.493073,222.314407 256.973602,221.713257 257.772400,221.102600 
	C257.595886,221.690704 257.101074,222.288315 256.309387,222.900742 
z"/>
<path fill="#8F4B38" opacity="1.000000" stroke="none" 
	d="
M189.390305,110.120880 
	C189.571625,109.583389 190.012878,108.904625 190.791489,108.204254 
	C190.635986,108.781639 190.143112,109.380623 189.390305,110.120880 
z"/>
<path fill="#BA5E3B" opacity="1.000000" stroke="none" 
	d="
M266.353088,214.055298 
	C266.536499,213.516571 266.980865,212.836914 267.762115,212.132797 
	C267.604004,212.710342 267.109009,213.312347 266.353088,214.055298 
z"/>
<path fill="#894836" opacity="1.000000" stroke="none" 
	d="
M157.383392,146.121490 
	C157.542496,145.569504 157.958038,144.859009 158.713989,144.111679 
	C158.582870,144.704208 158.111343,145.333588 157.383392,146.121490 
z"/>
<path fill="#804436" opacity="1.000000" stroke="none" 
	d="
M145.998749,156.353149 
	C146.499496,156.009109 146.998291,156.019974 147.871277,156.069977 
	C147.698135,156.703827 147.150818,157.298538 146.323059,158.011505 
	C146.027328,157.655869 146.012054,157.181976 145.998749,156.353149 
z"/>
<path fill="#804436" opacity="1.000000" stroke="none" 
	d="
M149.392242,155.114624 
	C149.620270,154.574432 150.111176,153.873642 150.962341,153.162506 
	C150.766769,153.752792 150.210938,154.353409 149.392242,155.114624 
z"/>
<path fill="#BA5E3B" opacity="1.000000" stroke="none" 
	d="
M259.996277,218.310455 
	C260.503601,217.996475 261.000366,218.007660 261.867126,218.068542 
	C261.697266,218.716934 261.157471,219.315659 260.313141,219.924469 
	C260.001007,219.501587 259.993378,219.068619 259.996277,218.310455 
z"/>
<path fill="#844637" opacity="1.000000" stroke="none" 
	d="
M217.581665,115.786469 
	C217.405884,116.108681 216.917175,116.498535 216.093781,116.889206 
	C216.262299,116.544708 216.765518,116.199402 217.581665,115.786469 
z"/>
<path fill="#4E3035" opacity="1.000000" stroke="none" 
	d="
M80.414536,150.204010 
	C80.339050,149.758301 80.520592,149.088135 81.021820,148.250427 
	C81.118187,148.715103 80.894875,149.347336 80.414536,150.204010 
z"/>
<path fill="#B25D3D" opacity="1.000000" stroke="none" 
	d="
M255.020477,59.662548 
	C254.595932,59.725998 254.009705,59.521713 253.277222,59.035183 
	C253.706924,58.966896 254.282867,59.180851 255.020477,59.662548 
z"/>
<path fill="#BA5E3B" opacity="1.000000" stroke="none" 
	d="
M222.409485,73.048569 
	C222.301834,72.633957 222.485001,72.052444 222.967194,71.358398 
	C223.077591,71.791130 222.888947,72.336395 222.409485,73.048569 
z"/>
<path fill="#BA5E3B" opacity="1.000000" stroke="none" 
	d="
M262.943542,143.639465 
	C262.522919,143.714844 261.964325,143.520157 261.258850,143.060791 
	C261.676514,142.987198 262.241058,143.178299 262.943542,143.639465 
z"/>
<path fill="#894836" opacity="1.000000" stroke="none" 
	d="
M158.949280,142.406677 
	C159.156021,142.098007 159.377151,142.120865 159.916138,142.252411 
	C160.055298,142.861359 159.876602,143.361603 159.401855,143.960907 
	C159.058441,143.619385 159.011047,143.178787 158.949280,142.406677 
z"/>
<path fill="#894836" opacity="1.000000" stroke="none" 
	d="
M165.425598,137.075699 
	C165.288330,136.668762 165.445099,136.063644 165.872986,135.281281 
	C166.002625,135.695190 165.861130,136.286346 165.425598,137.075699 
z"/>
<path fill="#8F4B38" opacity="1.000000" stroke="none" 
	d="
M192.945099,106.318520 
	C192.932159,105.896179 193.190582,105.493607 193.726730,105.038559 
	C193.741791,105.436813 193.479141,105.887550 192.945099,106.318520 
z"/>
<path fill="#8F4B38" opacity="1.000000" stroke="none" 
	d="
M191.450256,108.025772 
	C191.383362,107.615685 191.566193,107.105789 192.038544,106.618881 
	C192.118683,107.069901 191.909317,107.497925 191.450256,108.025772 
z"/>
<path fill="#8F4B38" opacity="1.000000" stroke="none" 
	d="
M173.415436,128.078339 
	C173.296799,127.668327 173.465759,127.072815 173.920563,126.329697 
	C174.038620,126.752350 173.870834,127.322601 173.415436,128.078339 
z"/>
<path fill="#A35337" opacity="1.000000" stroke="none" 
	d="
M257.949738,125.331345 
	C257.915497,124.941666 258.138336,124.518028 258.644348,124.044838 
	C258.687286,124.429314 258.447052,124.863350 257.949738,125.331345 
z"/>
<path fill="#1F1C33" opacity="1.000000" stroke="none" 
	d="
M52.954086,147.299438 
	C53.098560,147.273163 53.401390,147.457199 53.833908,147.878372 
	C53.679882,147.913574 53.396160,147.711655 52.954086,147.299438 
z"/>
<path fill="#BA5E3B" opacity="1.000000" stroke="none" 
	d="
M258.292206,220.994659 
	C258.255127,220.802750 258.478790,220.539886 258.942749,220.173615 
	C258.973053,220.354721 258.763000,220.639206 258.292206,220.994659 
z"/>
<path fill="#573435" opacity="1.000000" stroke="none" 
	d="
M106.307587,203.106018 
	C106.293388,202.938354 106.529068,202.619278 107.049835,202.192978 
	C107.075775,202.375381 106.816620,202.664978 106.307587,203.106018 
z"/>
<path fill="#BA5E3B" opacity="1.000000" stroke="none" 
	d="
M268.023560,148.674957 
	C267.735779,148.845200 267.472015,148.656250 267.161316,148.159088 
	C267.363129,148.092850 267.674194,148.247833 268.023560,148.674957 
z"/>
<path fill="#A35337" opacity="1.000000" stroke="none" 
	d="
M243.868622,66.863968 
	C243.907959,66.478981 244.097565,66.220718 244.591522,65.920929 
	C244.811737,65.817650 244.932922,65.940178 244.865479,66.203781 
	C244.602158,66.718376 244.360840,66.913010 244.074066,67.051292 
	C244.074066,67.051292 243.934753,66.928925 243.868622,66.863968 
z"/>
<path fill="#BA5E3B" opacity="1.000000" stroke="none" 
	d="
M225.628601,68.310425 
	C225.465179,67.990059 225.607590,67.680717 226.018250,67.327209 
	C226.169144,67.629181 226.051788,67.975311 225.628601,68.310425 
z"/>
<path fill="#8F4B38" opacity="1.000000" stroke="none" 
	d="
M171.676910,67.982361 
	C171.831070,68.251755 171.644287,68.509384 171.167969,68.824234 
	C171.106903,68.632889 171.259399,68.329269 171.676910,67.982361 
z"/>
<path fill="#BA5E3B" opacity="1.000000" stroke="none" 
	d="
M225.016220,46.723785 
	C224.810883,46.874195 224.545181,46.725826 224.176437,46.330685 
	C224.331863,46.261505 224.626007,46.375206 225.016220,46.723785 
z"/>
<path fill="#6D3D35" opacity="1.000000" stroke="none" 
	d="
M91.308960,136.863815 
	C91.182610,136.608459 91.374466,136.378052 91.855370,136.122299 
	C92.016899,136.376007 91.844482,136.639938 91.308960,136.863815 
z"/>
<path fill="#AF5736" opacity="1.000000" stroke="none" 
	d="
M260.005890,141.703445 
	C259.794739,141.852936 259.530487,141.700729 259.169006,141.296539 
	C259.327820,141.228958 259.621490,141.348022 260.005890,141.703445 
z"/>
<path fill="#BA5E3B" opacity="1.000000" stroke="none" 
	d="
M264.022217,144.675262 
	C263.796478,144.751282 263.531464,144.554596 263.160522,144.130035 
	C263.364075,144.068954 263.673492,144.235748 264.022217,144.675262 
z"/>
<path fill="#BA5E3B" opacity="1.000000" stroke="none" 
	d="
M265.022766,145.675812 
	C264.736267,145.844986 264.472626,145.656006 264.161591,145.159424 
	C264.362579,145.093704 264.673065,145.248962 265.022766,145.675812 
z"/>
<path fill="#BA5E3B" opacity="1.000000" stroke="none" 
	d="
M266.023071,146.675720 
	C265.736328,146.845032 265.472656,146.655991 265.161530,146.159271 
	C265.362640,146.093475 265.673309,146.248734 266.023071,146.675720 
z"/>
<path fill="#BA5E3B" opacity="1.000000" stroke="none" 
	d="
M267.023438,147.675461 
	C266.736267,147.845108 266.472504,147.656052 266.161438,147.159119 
	C266.362823,147.093170 266.673706,147.248337 267.023438,147.675461 
z"/>
<path fill="#1F1C33" opacity="1.000000" stroke="none" 
	d="
M138.682129,187.049286 
	C138.854187,187.316391 138.689728,187.562225 138.220856,187.831482 
	C137.981308,187.553101 138.124359,187.277451 138.682129,187.049286 
z"/>
<path fill="#392733" opacity="1.000000" stroke="none" 
	d="
M162.682388,160.018906 
	C162.834305,160.276703 162.655884,160.526733 162.187225,160.823059 
	C162.130081,160.641403 162.281769,160.355316 162.682388,160.018906 
z"/>
<path fill="#392733" opacity="1.000000" stroke="none" 
	d="
M161.673782,161.016205 
	C161.833267,161.282608 161.657745,161.530548 161.191620,161.821075 
	C161.129852,161.633774 161.275772,161.345123 161.673782,161.016205 
z"/>
<path fill="#442C34" opacity="1.000000" stroke="none" 
	d="
M78.740524,172.948273 
	C78.786720,173.094406 78.622978,173.390579 78.249878,173.832916 
	C78.203873,173.685501 78.367233,173.391922 78.740524,172.948273 
z"/>
<path fill="#292033" opacity="1.000000" stroke="none" 
	d="
M147.685364,177.037140 
	C147.841568,177.293900 147.669174,177.541061 147.202972,177.825867 
	C146.976562,177.555054 147.125748,177.276382 147.685364,177.037140 
z"/>
<path fill="#292033" opacity="1.000000" stroke="none" 
	d="
M146.676727,178.034393 
	C146.841476,178.300125 146.672195,178.545654 146.207367,178.824356 
	C145.962570,178.544815 146.106186,178.263702 146.676727,178.034393 
z"/>
<path fill="#292033" opacity="1.000000" stroke="none" 
	d="
M145.668961,179.030975 
	C145.842255,179.305756 145.675583,179.550385 145.210693,179.823761 
	C145.142761,179.630951 145.281616,179.347046 145.668961,179.030975 
z"/>
<path fill="#292033" opacity="1.000000" stroke="none" 
	d="
M144.640564,180.056854 
	C144.725677,180.280853 144.536423,180.552704 144.125031,180.948120 
	C144.057327,180.749374 144.211761,180.427048 144.640564,180.056854 
z"/>
<path fill="#974E37" opacity="1.000000" stroke="none" 
	d="
M244.030716,67.358368 
	C244.360840,66.913010 244.602158,66.718376 244.921753,66.269020 
	C249.076324,65.816216 249.011993,68.579048 249.008926,71.375114 
	C248.987106,91.257935 248.986862,111.140770 248.965576,131.487320 
	C248.213303,131.964233 247.475174,131.977417 246.367462,131.995392 
	C245.665253,130.090347 245.052551,128.181778 245.043945,126.270470 
	C244.968231,109.446060 245.037109,92.620956 244.947510,75.796684 
	C244.937622,73.939293 244.203140,72.085777 243.434967,70.090179 
	C243.372604,69.188408 243.679993,68.426926 244.030716,67.358368 
z"/>
<path fill="#000000" opacity="1.000000" stroke="none" 
	d="
M222.812393,195.907333 
	C221.632782,196.376022 220.453186,196.844742 219.076782,197.569214 
	C218.879959,197.824966 218.896255,197.892624 218.541550,197.898468 
	C216.461609,198.287231 214.736374,198.670166 212.758987,199.091461 
	C212.310760,199.397476 212.114700,199.665131 211.918640,199.932800 
	C211.918640,199.932800 211.984909,199.967712 211.653839,199.949310 
	C210.886902,199.954956 210.451035,199.978989 209.741028,199.759399 
	C199.959991,199.672409 190.453110,199.829056 180.946213,199.985687 
	C180.946213,199.985687 180.645996,199.874878 180.342651,199.508362 
	C180.039307,184.811646 180.039307,170.481445 180.039307,156.748230 
	C192.020798,156.748230 203.351471,156.748230 214.682159,156.748230 
	C216.817917,157.193436 218.953659,157.638626 221.489807,158.171219 
	C223.022980,158.869888 224.155731,159.481155 225.743347,160.322632 
	C226.198212,160.552841 226.547241,160.401230 226.547241,160.401230 
	C226.547241,160.401230 226.756760,160.436920 226.732666,160.665131 
	C227.077728,160.973572 227.446869,161.053802 227.816010,161.134033 
	C227.816010,161.134048 227.502808,161.395279 227.521347,161.602921 
	C229.124313,163.841278 230.708740,165.871994 232.604797,168.043274 
	C234.508087,176.507324 236.103790,184.831604 227.990570,191.473877 
	C227.819916,191.763901 227.799545,191.851883 227.530975,192.007599 
	C227.097748,192.706253 226.933105,193.249191 226.768463,193.792130 
	C226.768478,193.792130 226.935669,193.990631 226.571518,193.752960 
	C225.777512,193.972046 225.347656,194.428818 224.917786,194.885590 
	C224.917786,194.885574 224.927414,194.986038 224.615433,194.943481 
	C223.806442,195.236389 223.309418,195.571869 222.812393,195.907333 
z"/>
<path fill="#E0DADA" opacity="1.000000" stroke="none" 
	d="
M214.602020,156.520630 
	C203.351471,156.748230 192.020798,156.748230 180.039307,156.748230 
	C180.039307,170.481445 180.039307,184.811646 180.203415,199.587189 
	C179.874817,199.572372 178.950211,199.110474 178.952057,198.652267 
	C179.010086,184.129700 179.158035,169.607498 179.639069,154.775162 
	C181.135483,154.492767 182.285172,154.520447 184.081787,154.530426 
	C185.066345,154.426559 185.403992,154.340393 185.741638,154.254227 
	C186.551620,154.362259 187.361588,154.470306 188.582077,154.527939 
	C191.364197,154.511627 193.735809,154.545715 196.549179,154.529251 
	C199.695679,154.549561 202.400421,154.620422 205.549713,154.614212 
	C208.641632,154.831863 211.289001,155.126556 214.376953,155.412186 
	C214.571777,155.650818 214.473221,155.947464 214.602020,156.520630 
z"/>
<path fill="#B89389" opacity="1.000000" stroke="none" 
	d="
M180.814590,200.298492 
	C190.453110,199.829056 199.959991,199.672409 209.625458,199.960907 
	C209.784027,200.406052 209.600266,200.832870 209.600266,200.832870 
	C208.641815,200.817978 207.683350,200.803085 206.369781,200.845398 
	C203.304840,200.965424 200.595016,201.028229 197.440002,201.166382 
	C194.621567,201.188782 192.248337,201.135788 189.436493,201.159531 
	C186.613129,201.180954 184.228378,201.125671 181.403046,201.150101 
	C180.869293,201.023651 180.776123,200.817474 180.814590,200.298492 
z"/>
<path fill="#894836" opacity="1.000000" stroke="none" 
	d="
M226.606537,160.212677 
	C226.547241,160.401230 226.198212,160.552841 226.065704,160.416687 
	C226.177399,160.195053 226.421600,160.109589 226.606537,160.212677 
z"/>
<path fill="#894836" opacity="1.000000" stroke="none" 
	d="
M227.734283,160.906555 
	C227.446869,161.053802 227.077728,160.973572 226.770004,160.565628 
	C227.183365,160.239349 227.457077,160.386398 227.734283,160.906555 
z"/>
<path fill="#844637" opacity="1.000000" stroke="none" 
	d="
M213.011139,199.053101 
	C214.736374,198.670166 216.461609,198.287231 218.576294,197.896515 
	C217.539627,198.605011 216.113541,199.321289 214.327728,200.081146 
	C213.968002,200.124710 213.474747,200.046448 213.233398,199.782562 
	C212.992035,199.518692 213.011139,199.053101 213.011139,199.053101 
z"/>
<path fill="#8C4936" opacity="1.000000" stroke="none" 
	d="
M225.220947,194.881439 
	C225.347656,194.428818 225.777512,193.972046 226.499847,193.644867 
	C226.369583,194.142044 225.946838,194.509659 225.220947,194.881439 
z"/>
<path fill="#8C4936" opacity="1.000000" stroke="none" 
	d="
M227.049988,193.680878 
	C226.933105,193.249191 227.097748,192.706253 227.562256,192.040161 
	C227.685257,192.467880 227.508377,193.018738 227.049988,193.680878 
z"/>
<path fill="#8C4936" opacity="1.000000" stroke="none" 
	d="
M223.128723,195.902313 
	C223.309418,195.571869 223.806442,195.236389 224.623108,194.894348 
	C224.443542,195.224289 223.944290,195.560791 223.128723,195.902313 
z"/>
<path fill="#774136" opacity="1.000000" stroke="none" 
	d="
M209.945831,200.854706 
	C209.600266,200.832870 209.784027,200.406052 209.899597,200.204529 
	C210.451035,199.978989 210.886902,199.954956 211.650635,199.912003 
	C211.416153,200.220901 210.853775,200.548721 209.945831,200.854706 
z"/>
<path fill="#774136" opacity="1.000000" stroke="none" 
	d="
M212.758987,199.091461 
	C213.011139,199.053101 212.992035,199.518692 212.985641,199.751251 
	C212.802368,199.982300 212.625488,199.980774 212.183624,199.956024 
	C212.114700,199.665131 212.310760,199.397476 212.758987,199.091461 
z"/>
<path fill="#442C34" opacity="1.000000" stroke="none" 
	d="
M185.595001,154.208801 
	C185.403992,154.340393 185.066345,154.426559 184.490112,154.387695 
	C184.650452,154.229584 185.049408,154.196487 185.595001,154.208801 
z"/>
</svg>