<svg width="129" height="121" viewBox="0 0 129 121" fill="none" xmlns="http://www.w3.org/2000/svg">
<path d="M102.104 82.9366C102.104 84.0939 102.042 85.2462 101.922 86.3986C101.802 87.546 101.62 88.6886 101.38 89.8214C101.141 90.9591 100.844 92.0773 100.484 93.1808C100.125 94.2892 99.7084 95.3781 99.2397 96.4425C98.7657 97.5118 98.2397 98.5568 97.6616 99.5773C97.0782 100.593 96.4428 101.584 95.7605 102.546C95.073 103.508 94.3438 104.436 93.5574 105.329C92.7761 106.223 91.948 107.077 91.0782 107.893C90.2084 108.713 89.2918 109.489 88.3386 110.222C87.3855 110.954 86.3959 111.643 85.3751 112.282C84.349 112.927 83.2917 113.518 82.2032 114.065C81.1147 114.611 80.0053 115.105 78.8647 115.544C77.724 115.988 76.5678 116.374 75.3855 116.711C74.2084 117.048 73.0105 117.326 71.8021 117.556C70.5938 117.78 69.3751 117.946 68.1459 118.064C66.9219 118.176 65.6928 118.23 64.4584 118.23C63.224 118.23 61.9948 118.176 60.7657 118.064C59.5417 117.946 58.323 117.78 57.1146 117.556C55.9011 117.326 54.7084 117.048 53.5313 116.711C52.349 116.374 51.1875 115.988 50.0521 115.544C48.9115 115.105 47.7969 114.611 46.7084 114.065C45.625 113.518 44.5677 112.927 43.5417 112.282C42.5156 111.643 41.5261 110.954 40.5729 110.222C39.6198 109.489 38.7084 108.713 37.8386 107.893C36.9636 107.077 36.1354 106.223 35.3542 105.329C34.5729 104.436 33.8386 103.508 33.1563 102.546C32.4688 101.584 31.8385 100.593 31.2552 99.5773C30.6719 98.5568 30.1458 97.5118 29.6771 96.4425C29.2031 95.3781 28.7917 94.2892 28.4323 93.1808C28.0729 92.0773 27.776 90.9591 27.5313 89.8214C27.2917 88.6886 27.1146 87.546 26.9896 86.3986C26.8698 85.2462 26.8125 84.0939 26.8125 82.9366C26.8125 81.7794 26.8698 80.6271 26.9896 79.4796C27.1146 78.3273 27.2917 77.1847 27.5313 76.0519C27.776 74.919 28.0729 73.796 28.4323 72.6925C28.7917 71.5841 29.2031 70.5001 29.6771 69.4308C30.1458 68.3614 30.6719 67.3214 31.2552 66.3009C31.8385 65.2804 32.4688 64.2892 33.1563 63.3272C33.8386 62.3702 34.5729 61.4425 35.3542 60.5489C36.1354 59.6554 36.9636 58.796 37.8386 57.9805C38.7084 57.1651 39.6198 56.3887 40.5729 55.6563C41.5261 54.919 42.5156 54.2354 43.5417 53.5909C44.5677 52.9512 45.625 52.3555 46.7084 51.8087C47.7969 51.2667 48.9115 50.7735 50.0521 50.3292C51.1875 49.8897 52.349 49.4991 53.5313 49.1622C54.7084 48.8253 55.9011 48.5469 57.1146 48.3223C58.323 48.0977 59.5417 47.9268 60.7657 47.8145C61.9948 47.7022 63.224 47.6436 64.4584 47.6436C65.6928 47.6436 66.9219 47.7022 68.1459 47.8145C69.3751 47.9268 70.5938 48.0977 71.8021 48.3223C73.0105 48.5469 74.2084 48.8253 75.3855 49.1622C76.5678 49.4991 77.724 49.8897 78.8647 50.3292C80.0053 50.7735 81.1147 51.2667 82.2032 51.8087C83.2917 52.3555 84.349 52.9512 85.3751 53.5909C86.3959 54.2354 87.3855 54.919 88.3386 55.6563C89.2918 56.3887 90.2084 57.1651 91.0782 57.9805C91.948 58.796 92.7761 59.6554 93.5574 60.5489C94.3438 61.4425 95.073 62.3702 95.7605 63.3272C96.4428 64.2892 97.0782 65.2804 97.6616 66.3009C98.2397 67.3214 98.7657 68.3614 99.2397 69.4308C99.7084 70.5001 100.125 71.5841 100.484 72.6925C100.844 73.796 101.141 74.919 101.38 76.0519C101.62 77.1847 101.802 78.3273 101.922 79.4796C102.042 80.6271 102.104 81.7794 102.104 82.9366Z" stroke="url(#paint0_linear_1103_3)" stroke-width="5.09352" stroke-miterlimit="10" stroke-linecap="round" stroke-linejoin="round"/>
<path d="M102.104 38.293C102.104 39.4502 102.042 40.6026 101.922 41.7549C101.802 42.9024 101.62 44.045 101.38 45.1778C101.141 46.3106 100.844 47.4336 100.484 48.5372C100.125 49.6456 99.7084 50.7344 99.2397 51.7989C98.7657 52.8682 98.2397 53.9132 97.6616 54.9337C97.0782 55.9493 96.4428 56.9405 95.7605 57.9024C95.073 58.8643 94.3438 59.7921 93.5574 60.6856C92.7761 61.5792 91.948 62.4337 91.0782 63.2491C90.2084 64.0694 89.2918 64.8409 88.3386 65.5782C87.3855 66.3106 86.3959 66.9991 85.3751 67.6388C84.349 68.2833 83.2917 68.8741 82.2032 69.421C81.1147 69.963 80.0053 70.461 78.8647 70.9005C77.724 71.3448 76.5678 71.7306 75.3855 72.0675C74.2084 72.4044 73.0105 72.6827 71.8021 72.9122C70.5938 73.1368 69.3751 73.3028 68.1459 73.42C66.9219 73.5323 65.6928 73.586 64.4584 73.586C63.224 73.586 61.9948 73.5323 60.7657 73.42C59.5417 73.3028 58.323 73.1368 57.1146 72.9073C55.9011 72.6827 54.7084 72.4044 53.5313 72.0675C52.349 71.7306 51.1875 71.3448 50.0521 70.9005C48.9115 70.461 47.7969 69.963 46.7084 69.421C45.625 68.8741 44.5677 68.2833 43.5417 67.6388C42.5156 66.9991 41.5261 66.3106 40.5729 65.5782C39.6198 64.8409 38.7084 64.0694 37.8386 63.2491C36.9636 62.4337 36.1354 61.5792 35.3542 60.6856C34.5729 59.7921 33.8386 58.8643 33.1563 57.9024C32.4688 56.9405 31.8385 55.9493 31.2552 54.9337C30.6719 53.9132 30.1458 52.8682 29.6771 51.7989C29.2031 50.7344 28.7917 49.6456 28.4323 48.5372C28.0729 47.4336 27.776 46.3106 27.5313 45.1778C27.2917 44.045 27.1146 42.9024 26.9896 41.7549C26.8698 40.6026 26.8125 39.4502 26.8125 38.293C26.8125 37.1358 26.8698 35.9834 26.9896 34.836C27.1146 33.6836 27.2917 32.5411 27.5313 31.4082C27.776 30.2754 28.0729 29.1524 28.4323 28.0489C28.7917 26.9405 29.2031 25.8565 29.6771 24.7871C30.1458 23.7178 30.6719 22.6778 31.2552 21.6573C31.8385 20.6367 32.4688 19.6455 33.1563 18.6836C33.8386 17.7217 34.5729 16.7988 35.3542 15.9053C36.1354 15.0117 36.9636 14.1524 37.8386 13.3369C38.7084 12.5215 39.6198 11.7451 40.5729 11.0127C41.5261 10.2754 42.5156 9.59181 43.5417 8.94727C44.5677 8.30762 45.625 7.71192 46.7084 7.16504C47.7969 6.62305 48.9115 6.12989 50.0521 5.68555C51.1875 5.24121 52.349 4.85547 53.5313 4.51856C54.7084 4.18164 55.9011 3.90332 57.1146 3.67871C58.323 3.4541 59.5417 3.2832 60.7657 3.1709C61.9948 3.05371 63.224 3 64.4584 3C65.6928 3 66.9219 3.05371 68.1459 3.1709C69.3751 3.2832 70.5938 3.4541 71.8021 3.67871C73.0105 3.90332 74.2084 4.18164 75.3855 4.51856C76.5678 4.85547 77.724 5.24121 78.8647 5.68555C80.0053 6.12989 81.1147 6.62305 82.2032 7.16504C83.2917 7.71192 84.349 8.30762 85.3751 8.94727C86.3959 9.59181 87.3855 10.2754 88.3386 11.0127C89.2918 11.7451 90.2084 12.5215 91.0782 13.3369C91.948 14.1524 92.7761 15.0117 93.5574 15.9053C94.3438 16.7988 95.073 17.7217 95.7605 18.6836C96.4428 19.6455 97.0782 20.6367 97.6616 21.6573C98.2397 22.6778 98.7657 23.7178 99.2397 24.7871C99.7084 25.8565 100.125 26.9405 100.484 28.0489C100.844 29.1524 101.141 30.2754 101.38 31.4082C101.62 32.5411 101.802 33.6836 101.922 34.836C102.042 35.9834 102.104 37.1358 102.104 38.293Z" stroke="url(#paint1_linear_1103_3)" stroke-width="5.09352" stroke-miterlimit="10" stroke-linecap="round" stroke-linejoin="round"/>
<path d="M78.297 60.6173C78.297 61.7696 78.2345 62.9269 78.1147 64.0743C77.9949 65.2267 77.8126 66.3693 77.573 67.5021C77.3334 68.6349 77.0313 69.753 76.672 70.8614C76.3178 71.965 75.9011 73.0538 75.4272 74.1232C74.9584 75.1876 74.4324 76.2325 73.8491 77.2531C73.2657 78.2736 72.6355 79.2648 71.948 80.2218C71.2657 81.1837 70.5313 82.1115 69.7501 83.005C68.9688 83.8986 68.1407 84.7531 67.2657 85.5734C66.3959 86.3888 65.4845 87.1652 64.5313 87.8976C63.5782 88.63 62.5886 89.3185 61.5626 89.963C60.5365 90.6027 59.4792 91.1984 58.3959 91.7404C57.3074 92.2873 56.1928 92.7804 55.0522 93.2248C53.9167 93.6642 52.7553 94.0548 51.5782 94.3917C50.3959 94.7238 49.2032 95.007 47.9896 95.2316C46.7813 95.4562 45.5626 95.6271 44.3386 95.7394C43.1094 95.8517 41.8803 95.9103 40.6459 95.9103C39.4167 95.9103 38.1823 95.8517 36.9584 95.7394C35.7292 95.6271 34.5105 95.4562 33.3021 95.2316C32.0938 95.007 30.9011 94.7238 29.7188 94.3917C28.5417 94.0548 27.3802 93.6642 26.2396 93.2248C25.099 92.7804 23.9896 92.2873 22.9011 91.7404C21.8125 91.1984 20.7552 90.6027 19.7344 89.963C18.7084 89.3185 17.7188 88.63 16.7656 87.8976C15.8125 87.1652 14.9011 86.3888 14.0261 85.5734C13.1563 84.7531 12.3281 83.8986 11.5469 83.005C10.7656 82.1115 10.0313 81.1837 9.34376 80.2218C8.66147 79.2648 8.02605 78.2736 7.44792 77.2531C6.86459 76.2325 6.33855 75.1876 5.86459 74.1232C5.39584 73.0538 4.97917 71.965 4.61979 70.8614C4.26563 69.753 3.96354 68.6349 3.72396 67.5021C3.48438 66.3693 3.30208 65.2267 3.18229 64.0743C3.0625 62.9269 3 61.7696 3 60.6173C3 59.4601 3.0625 58.3077 3.18229 57.1554C3.30208 56.0079 3.48438 54.8653 3.72396 53.7276C3.96354 52.5948 4.26563 51.4767 4.61979 50.3683C4.97917 49.2647 5.39584 48.1759 5.86459 47.1065C6.33855 46.0421 6.86459 44.9972 7.44792 43.9766C8.02605 42.9561 8.66147 41.9698 9.34376 41.0079C10.0313 40.046 10.7656 39.1182 11.5469 38.2247C12.3281 37.3311 13.1563 36.4766 14.0261 35.6563C14.9011 34.8409 15.8125 34.0645 16.7656 33.3321C17.7188 32.5997 18.7084 31.9112 19.7344 31.2716C20.7552 30.627 21.8125 30.0313 22.9011 29.4893C23.9896 28.9424 25.099 28.4493 26.2396 28.0098C27.3802 27.5655 28.5417 27.1749 29.7188 26.8428C30.9011 26.5059 32.0938 26.2227 33.3021 25.9981C34.5105 25.7735 35.7292 25.6026 36.9584 25.4903C38.1823 25.378 39.4167 25.3194 40.6459 25.3194C41.8803 25.3194 43.1094 25.378 44.3386 25.4903C45.5626 25.6026 46.7813 25.7735 47.9896 25.9981C49.2032 26.2227 50.3959 26.5059 51.5782 26.8428C52.7553 27.1749 53.9167 27.5655 55.0522 28.0098C56.1928 28.4493 57.3074 28.9424 58.3959 29.4893C59.4792 30.0313 60.5365 30.627 61.5626 31.2716C62.5886 31.9112 63.5782 32.5997 64.5313 33.3321C65.4845 34.0645 66.3959 34.8409 67.2657 35.6563C68.1407 36.4766 68.9688 37.3311 69.7501 38.2247C70.5313 39.1182 71.2657 40.046 71.948 41.0079C72.6355 41.9698 73.2657 42.9561 73.8491 43.9766C74.4324 44.9972 74.9584 46.0421 75.4272 47.1065C75.9011 48.1759 76.3178 49.2647 76.672 50.3683C77.0313 51.4767 77.3334 52.5948 77.573 53.7276C77.8126 54.8653 77.9949 56.0079 78.1147 57.1554C78.2345 58.3077 78.297 59.4601 78.297 60.6173Z" stroke="url(#paint2_linear_1103_3)" stroke-width="5.09352" stroke-miterlimit="10" stroke-linecap="round" stroke-linejoin="round"/>
<path d="M125.917 60.6173C125.917 61.7696 125.854 62.9269 125.735 64.0743C125.615 65.2267 125.432 66.3693 125.193 67.5021C124.953 68.6349 124.651 69.753 124.292 70.8614C123.938 71.965 123.521 73.0538 123.047 74.1232C122.578 75.1876 122.052 76.2325 121.469 77.2531C120.891 78.2736 120.255 79.2648 119.568 80.2218C118.886 81.1837 118.151 82.1115 117.37 83.005C116.589 83.8986 115.761 84.7531 114.891 85.5734C114.016 86.3888 113.104 87.1652 112.151 87.8976C111.198 88.63 110.208 89.3185 109.182 89.963C108.156 90.6027 107.104 91.1984 106.016 91.7404C104.927 92.2873 103.813 92.7804 102.672 93.2248C101.537 93.6642 100.375 94.0548 99.1981 94.3917C98.0158 94.7238 96.8231 95.007 95.6147 95.2316C94.4012 95.4562 93.1824 95.6271 91.9585 95.7394C90.7293 95.8517 89.5001 95.9103 88.2658 95.9103C87.0366 95.9103 85.8022 95.8517 84.5783 95.7394C83.3491 95.6271 82.1303 95.4562 80.922 95.2316C79.7137 95.007 78.521 94.7238 77.3387 94.3917C76.1616 94.0548 75.0001 93.6642 73.8595 93.2248C72.7241 92.7804 71.6095 92.2873 70.5209 91.7404C69.4324 91.1984 68.3751 90.6027 67.3543 89.963C66.3282 89.3185 65.3386 88.63 64.3855 87.8976C63.4324 87.1652 62.5209 86.3888 61.6459 85.5734C60.7761 84.7531 59.948 83.8986 59.1668 83.005C58.3855 82.1115 57.6511 81.1837 56.9636 80.2218C56.2813 79.2648 55.6459 78.2736 55.0678 77.2531C54.4845 76.2325 53.9584 75.1876 53.4845 74.1232C53.0157 73.0538 52.599 71.965 52.2397 70.8614C51.8855 69.753 51.5834 68.6349 51.3438 67.5021C51.1042 66.3693 50.922 65.2267 50.8022 64.0743C50.6824 62.9269 50.6199 61.7696 50.6199 60.6173C50.6199 59.4601 50.6824 58.3077 50.8022 57.1554C50.922 56.0079 51.1042 54.8653 51.3438 53.7276C51.5834 52.5948 51.8855 51.4767 52.2397 50.3683C52.599 49.2647 53.0157 48.1759 53.4845 47.1065C53.9584 46.0421 54.4845 44.9972 55.0678 43.9766C55.6459 42.9561 56.2813 41.9698 56.9636 41.0079C57.6511 40.046 58.3855 39.1182 59.1668 38.2247C59.948 37.3311 60.7761 36.4766 61.6459 35.6563C62.5209 34.8409 63.4324 34.0645 64.3855 33.3321C65.3386 32.5997 66.3282 31.9112 67.3543 31.2716C68.3751 30.627 69.4324 30.0313 70.5209 29.4893C71.6095 28.9424 72.7241 28.4493 73.8595 28.0098C75.0001 27.5655 76.1616 27.1749 77.3387 26.8428C78.521 26.5059 79.7137 26.2227 80.922 25.9981C82.1303 25.7735 83.3491 25.6026 84.5783 25.4903C85.8022 25.378 87.0366 25.3194 88.2658 25.3194C89.5001 25.3194 90.7293 25.378 91.9585 25.4903C93.1824 25.6026 94.4012 25.7735 95.6147 25.9981C96.8231 26.2227 98.0158 26.5059 99.1981 26.8428C100.375 27.1749 101.537 27.5655 102.677 28.0098C103.813 28.4493 104.927 28.9424 106.016 29.4893C107.104 30.0313 108.156 30.627 109.182 31.2716C110.208 31.9112 111.198 32.5997 112.151 33.3321C113.104 34.0645 114.016 34.8409 114.891 35.6563C115.761 36.4766 116.589 37.3311 117.37 38.2247C118.151 39.1182 118.886 40.046 119.568 41.0079C120.255 41.9698 120.891 42.9561 121.469 43.9766C122.052 44.9972 122.578 46.0421 123.047 47.1065C123.521 48.1759 123.938 49.2647 124.292 50.3683C124.651 51.4767 124.953 52.5948 125.193 53.7276C125.432 54.8653 125.615 56.0079 125.735 57.1554C125.854 58.3077 125.917 59.4601 125.917 60.6173Z" stroke="url(#paint3_linear_1103_3)" stroke-width="5.09352" stroke-miterlimit="10" stroke-linecap="round" stroke-linejoin="round"/>
<path d="M60.9062 57.2823V63.9473H68.0104V57.2823H60.9062Z" fill="url(#paint4_linear_1103_3)"/>
<defs>
<linearGradient id="paint0_linear_1103_3" x1="24.2635" y1="82.9375" x2="104.651" y2="82.9375" gradientUnits="userSpaceOnUse">
<stop stop-color="#42E396"/>
<stop offset="0.0078125" stop-color="#42E396"/>
<stop offset="0.015625" stop-color="#42E397"/>
<stop offset="0.0234375" stop-color="#42E397"/>
<stop offset="0.03125" stop-color="#41E398"/>
<stop offset="0.0390625" stop-color="#41E399"/>
<stop offset="0.046875" stop-color="#41E39A"/>
<stop offset="0.0546875" stop-color="#40E39B"/>
<stop offset="0.0625" stop-color="#40E29C"/>
<stop offset="0.0703125" stop-color="#40E29D"/>
<stop offset="0.078125" stop-color="#3FE29D"/>
<stop offset="0.0859375" stop-color="#3FE29E"/>
<stop offset="0.09375" stop-color="#3FE29F"/>
<stop offset="0.101562" stop-color="#3EE2A0"/>
<stop offset="0.109375" stop-color="#3EE2A1"/>
<stop offset="0.117188" stop-color="#3EE2A2"/>
<stop offset="0.125" stop-color="#3DE2A3"/>
<stop offset="0.132812" stop-color="#3DE2A3"/>
<stop offset="0.140625" stop-color="#3DE2A4"/>
<stop offset="0.148438" stop-color="#3DE2A5"/>
<stop offset="0.15625" stop-color="#3CE2A6"/>
<stop offset="0.164062" stop-color="#3CE2A7"/>
<stop offset="0.171875" stop-color="#3CE1A8"/>
<stop offset="0.179688" stop-color="#3BE1A9"/>
<stop offset="0.1875" stop-color="#3BE1A9"/>
<stop offset="0.195312" stop-color="#3BE1AA"/>
<stop offset="0.203125" stop-color="#3AE1AB"/>
<stop offset="0.210938" stop-color="#3AE1AC"/>
<stop offset="0.21875" stop-color="#3AE1AD"/>
<stop offset="0.226562" stop-color="#39E1AE"/>
<stop offset="0.234375" stop-color="#39E1AF"/>
<stop offset="0.242188" stop-color="#39E1AF"/>
<stop offset="0.25" stop-color="#39E1B0"/>
<stop offset="0.257813" stop-color="#38E1B1"/>
<stop offset="0.265625" stop-color="#38E1B2"/>
<stop offset="0.273438" stop-color="#38E0B3"/>
<stop offset="0.28125" stop-color="#37E0B4"/>
<stop offset="0.289063" stop-color="#37E0B5"/>
<stop offset="0.296875" stop-color="#37E0B5"/>
<stop offset="0.304688" stop-color="#36E0B6"/>
<stop offset="0.3125" stop-color="#36E0B7"/>
<stop offset="0.320313" stop-color="#36E0B8"/>
<stop offset="0.328125" stop-color="#35E0B9"/>
<stop offset="0.335938" stop-color="#35E0BA"/>
<stop offset="0.34375" stop-color="#35E0BB"/>
<stop offset="0.351562" stop-color="#34E0BB"/>
<stop offset="0.359375" stop-color="#34E0BC"/>
<stop offset="0.367188" stop-color="#34E0BD"/>
<stop offset="0.375" stop-color="#34E0BE"/>
<stop offset="0.382813" stop-color="#33DFBF"/>
<stop offset="0.390625" stop-color="#33DFC0"/>
<stop offset="0.398438" stop-color="#33DFC1"/>
<stop offset="0.40625" stop-color="#32DFC1"/>
<stop offset="0.414062" stop-color="#32DFC2"/>
<stop offset="0.421875" stop-color="#32DFC3"/>
<stop offset="0.429688" stop-color="#31DFC4"/>
<stop offset="0.4375" stop-color="#31DFC5"/>
<stop offset="0.445313" stop-color="#31DFC6"/>
<stop offset="0.453125" stop-color="#30DFC7"/>
<stop offset="0.460938" stop-color="#30DFC7"/>
<stop offset="0.46875" stop-color="#30DFC8"/>
<stop offset="0.476563" stop-color="#30DFC9"/>
<stop offset="0.484375" stop-color="#2FDFCA"/>
<stop offset="0.492188" stop-color="#2FDECB"/>
<stop offset="0.5" stop-color="#2FDECC"/>
<stop offset="0.507813" stop-color="#2EDECD"/>
<stop offset="0.515625" stop-color="#2EDECD"/>
<stop offset="0.523438" stop-color="#2EDECE"/>
<stop offset="0.53125" stop-color="#2DDECF"/>
<stop offset="0.539062" stop-color="#2DDED0"/>
<stop offset="0.546875" stop-color="#2DDED1"/>
<stop offset="0.554688" stop-color="#2CDED2"/>
<stop offset="0.5625" stop-color="#2CDED3"/>
<stop offset="0.570312" stop-color="#2CDED3"/>
<stop offset="0.578125" stop-color="#2CDED4"/>
<stop offset="0.585937" stop-color="#2BDED5"/>
<stop offset="0.59375" stop-color="#2BDED6"/>
<stop offset="0.601563" stop-color="#2BDDD7"/>
<stop offset="0.609375" stop-color="#2ADDD8"/>
<stop offset="0.617188" stop-color="#2ADDD9"/>
<stop offset="0.625" stop-color="#2ADDD9"/>
<stop offset="0.632813" stop-color="#29DDDA"/>
<stop offset="0.640625" stop-color="#29DDDB"/>
<stop offset="0.648438" stop-color="#29DDDC"/>
<stop offset="0.65625" stop-color="#28DDDD"/>
<stop offset="0.664062" stop-color="#28DDDE"/>
<stop offset="0.671875" stop-color="#28DDDF"/>
<stop offset="0.679688" stop-color="#27DDDF"/>
<stop offset="0.6875" stop-color="#27DDE0"/>
<stop offset="0.695313" stop-color="#27DDE1"/>
<stop offset="0.703125" stop-color="#27DCE2"/>
<stop offset="0.710938" stop-color="#26DCE3"/>
<stop offset="0.71875" stop-color="#26DCE4"/>
<stop offset="0.726563" stop-color="#26DCE5"/>
<stop offset="0.734375" stop-color="#25DCE5"/>
<stop offset="0.742188" stop-color="#25DCE6"/>
<stop offset="0.75" stop-color="#25DCE7"/>
<stop offset="0.757812" stop-color="#24DCE8"/>
<stop offset="0.765625" stop-color="#24DCE9"/>
<stop offset="0.773438" stop-color="#24DCEA"/>
<stop offset="0.78125" stop-color="#23DCEB"/>
<stop offset="0.789062" stop-color="#23DCEB"/>
<stop offset="0.796875" stop-color="#23DCEC"/>
<stop offset="0.804688" stop-color="#23DCED"/>
<stop offset="0.8125" stop-color="#22DBEE"/>
<stop offset="0.820313" stop-color="#22DBEF"/>
<stop offset="0.828125" stop-color="#22DBF0"/>
<stop offset="0.835938" stop-color="#21DBF1"/>
<stop offset="0.84375" stop-color="#21DBF1"/>
<stop offset="0.851563" stop-color="#21DBF2"/>
<stop offset="0.859375" stop-color="#20DBF3"/>
<stop offset="0.867188" stop-color="#20DBF4"/>
<stop offset="0.875" stop-color="#20DBF5"/>
<stop offset="0.882812" stop-color="#1FDBF6"/>
<stop offset="0.890625" stop-color="#1FDBF7"/>
<stop offset="0.898438" stop-color="#1FDBF7"/>
<stop offset="0.90625" stop-color="#1EDBF8"/>
<stop offset="0.914062" stop-color="#1EDBF9"/>
<stop offset="0.921875" stop-color="#1EDAFA"/>
<stop offset="0.929687" stop-color="#1EDAFB"/>
<stop offset="0.9375" stop-color="#1DDAFC"/>
<stop offset="0.945313" stop-color="#1DDAFD"/>
<stop offset="0.953125" stop-color="#1DDAFD"/>
<stop offset="0.960938" stop-color="#1CDAFE"/>
<stop offset="0.96875" stop-color="#1CDAFF"/>
<stop offset="1" stop-color="#1CDAFF"/>
</linearGradient>
<linearGradient id="paint1_linear_1103_3" x1="24.2635" y1="38.2937" x2="104.651" y2="38.2937" gradientUnits="userSpaceOnUse">
<stop stop-color="#42E396"/>
<stop offset="0.0078125" stop-color="#42E396"/>
<stop offset="0.015625" stop-color="#42E397"/>
<stop offset="0.0234375" stop-color="#42E397"/>
<stop offset="0.03125" stop-color="#41E398"/>
<stop offset="0.0390625" stop-color="#41E399"/>
<stop offset="0.046875" stop-color="#41E39A"/>
<stop offset="0.0546875" stop-color="#40E39B"/>
<stop offset="0.0625" stop-color="#40E29C"/>
<stop offset="0.0703125" stop-color="#40E29D"/>
<stop offset="0.078125" stop-color="#3FE29D"/>
<stop offset="0.0859375" stop-color="#3FE29E"/>
<stop offset="0.09375" stop-color="#3FE29F"/>
<stop offset="0.101562" stop-color="#3EE2A0"/>
<stop offset="0.109375" stop-color="#3EE2A1"/>
<stop offset="0.117188" stop-color="#3EE2A2"/>
<stop offset="0.125" stop-color="#3DE2A3"/>
<stop offset="0.132812" stop-color="#3DE2A3"/>
<stop offset="0.140625" stop-color="#3DE2A4"/>
<stop offset="0.148438" stop-color="#3DE2A5"/>
<stop offset="0.15625" stop-color="#3CE2A6"/>
<stop offset="0.164062" stop-color="#3CE2A7"/>
<stop offset="0.171875" stop-color="#3CE1A8"/>
<stop offset="0.179688" stop-color="#3BE1A9"/>
<stop offset="0.1875" stop-color="#3BE1A9"/>
<stop offset="0.195312" stop-color="#3BE1AA"/>
<stop offset="0.203125" stop-color="#3AE1AB"/>
<stop offset="0.210938" stop-color="#3AE1AC"/>
<stop offset="0.21875" stop-color="#3AE1AD"/>
<stop offset="0.226562" stop-color="#39E1AE"/>
<stop offset="0.234375" stop-color="#39E1AF"/>
<stop offset="0.242188" stop-color="#39E1AF"/>
<stop offset="0.25" stop-color="#39E1B0"/>
<stop offset="0.257813" stop-color="#38E1B1"/>
<stop offset="0.265625" stop-color="#38E1B2"/>
<stop offset="0.273438" stop-color="#38E0B3"/>
<stop offset="0.28125" stop-color="#37E0B4"/>
<stop offset="0.289063" stop-color="#37E0B5"/>
<stop offset="0.296875" stop-color="#37E0B5"/>
<stop offset="0.304688" stop-color="#36E0B6"/>
<stop offset="0.3125" stop-color="#36E0B7"/>
<stop offset="0.320313" stop-color="#36E0B8"/>
<stop offset="0.328125" stop-color="#35E0B9"/>
<stop offset="0.335938" stop-color="#35E0BA"/>
<stop offset="0.34375" stop-color="#35E0BB"/>
<stop offset="0.351562" stop-color="#34E0BB"/>
<stop offset="0.359375" stop-color="#34E0BC"/>
<stop offset="0.367188" stop-color="#34E0BD"/>
<stop offset="0.375" stop-color="#34E0BE"/>
<stop offset="0.382813" stop-color="#33DFBF"/>
<stop offset="0.390625" stop-color="#33DFC0"/>
<stop offset="0.398438" stop-color="#33DFC1"/>
<stop offset="0.40625" stop-color="#32DFC1"/>
<stop offset="0.414062" stop-color="#32DFC2"/>
<stop offset="0.421875" stop-color="#32DFC3"/>
<stop offset="0.429688" stop-color="#31DFC4"/>
<stop offset="0.4375" stop-color="#31DFC5"/>
<stop offset="0.445313" stop-color="#31DFC6"/>
<stop offset="0.453125" stop-color="#30DFC7"/>
<stop offset="0.460938" stop-color="#30DFC7"/>
<stop offset="0.46875" stop-color="#30DFC8"/>
<stop offset="0.476563" stop-color="#30DFC9"/>
<stop offset="0.484375" stop-color="#2FDFCA"/>
<stop offset="0.492188" stop-color="#2FDECB"/>
<stop offset="0.5" stop-color="#2FDECC"/>
<stop offset="0.507813" stop-color="#2EDECD"/>
<stop offset="0.515625" stop-color="#2EDECD"/>
<stop offset="0.523438" stop-color="#2EDECE"/>
<stop offset="0.53125" stop-color="#2DDECF"/>
<stop offset="0.539062" stop-color="#2DDED0"/>
<stop offset="0.546875" stop-color="#2DDED1"/>
<stop offset="0.554688" stop-color="#2CDED2"/>
<stop offset="0.5625" stop-color="#2CDED3"/>
<stop offset="0.570312" stop-color="#2CDED3"/>
<stop offset="0.578125" stop-color="#2CDED4"/>
<stop offset="0.585937" stop-color="#2BDED5"/>
<stop offset="0.59375" stop-color="#2BDED6"/>
<stop offset="0.601563" stop-color="#2BDDD7"/>
<stop offset="0.609375" stop-color="#2ADDD8"/>
<stop offset="0.617188" stop-color="#2ADDD9"/>
<stop offset="0.625" stop-color="#2ADDD9"/>
<stop offset="0.632813" stop-color="#29DDDA"/>
<stop offset="0.640625" stop-color="#29DDDB"/>
<stop offset="0.648438" stop-color="#29DDDC"/>
<stop offset="0.65625" stop-color="#28DDDD"/>
<stop offset="0.664062" stop-color="#28DDDE"/>
<stop offset="0.671875" stop-color="#28DDDF"/>
<stop offset="0.679688" stop-color="#27DDDF"/>
<stop offset="0.6875" stop-color="#27DDE0"/>
<stop offset="0.695313" stop-color="#27DDE1"/>
<stop offset="0.703125" stop-color="#27DCE2"/>
<stop offset="0.710938" stop-color="#26DCE3"/>
<stop offset="0.71875" stop-color="#26DCE4"/>
<stop offset="0.726563" stop-color="#26DCE5"/>
<stop offset="0.734375" stop-color="#25DCE5"/>
<stop offset="0.742188" stop-color="#25DCE6"/>
<stop offset="0.75" stop-color="#25DCE7"/>
<stop offset="0.757812" stop-color="#24DCE8"/>
<stop offset="0.765625" stop-color="#24DCE9"/>
<stop offset="0.773438" stop-color="#24DCEA"/>
<stop offset="0.78125" stop-color="#23DCEB"/>
<stop offset="0.789062" stop-color="#23DCEB"/>
<stop offset="0.796875" stop-color="#23DCEC"/>
<stop offset="0.804688" stop-color="#23DCED"/>
<stop offset="0.8125" stop-color="#22DBEE"/>
<stop offset="0.820313" stop-color="#22DBEF"/>
<stop offset="0.828125" stop-color="#22DBF0"/>
<stop offset="0.835938" stop-color="#21DBF1"/>
<stop offset="0.84375" stop-color="#21DBF1"/>
<stop offset="0.851563" stop-color="#21DBF2"/>
<stop offset="0.859375" stop-color="#20DBF3"/>
<stop offset="0.867188" stop-color="#20DBF4"/>
<stop offset="0.875" stop-color="#20DBF5"/>
<stop offset="0.882812" stop-color="#1FDBF6"/>
<stop offset="0.890625" stop-color="#1FDBF7"/>
<stop offset="0.898438" stop-color="#1FDBF7"/>
<stop offset="0.90625" stop-color="#1EDBF8"/>
<stop offset="0.914062" stop-color="#1EDBF9"/>
<stop offset="0.921875" stop-color="#1EDAFA"/>
<stop offset="0.929687" stop-color="#1EDAFB"/>
<stop offset="0.9375" stop-color="#1DDAFC"/>
<stop offset="0.945313" stop-color="#1DDAFD"/>
<stop offset="0.953125" stop-color="#1DDAFD"/>
<stop offset="0.960938" stop-color="#1CDAFE"/>
<stop offset="0.96875" stop-color="#1CDAFF"/>
<stop offset="1" stop-color="#1CDAFF"/>
</linearGradient>
<linearGradient id="paint2_linear_1103_3" x1="40.6473" y1="22.9336" x2="40.6473" y2="98.2973" gradientUnits="userSpaceOnUse">
<stop stop-color="#42E396"/>
<stop offset="0.0078125" stop-color="#42E396"/>
<stop offset="0.015625" stop-color="#42E397"/>
<stop offset="0.0234375" stop-color="#42E397"/>
<stop offset="0.03125" stop-color="#41E398"/>
<stop offset="0.0390625" stop-color="#41E399"/>
<stop offset="0.046875" stop-color="#41E39A"/>
<stop offset="0.0546875" stop-color="#40E39B"/>
<stop offset="0.0625" stop-color="#40E29C"/>
<stop offset="0.0703125" stop-color="#40E29D"/>
<stop offset="0.078125" stop-color="#3FE29D"/>
<stop offset="0.0859375" stop-color="#3FE29E"/>
<stop offset="0.09375" stop-color="#3FE29F"/>
<stop offset="0.101562" stop-color="#3EE2A0"/>
<stop offset="0.109375" stop-color="#3EE2A1"/>
<stop offset="0.117188" stop-color="#3EE2A2"/>
<stop offset="0.125" stop-color="#3DE2A3"/>
<stop offset="0.132812" stop-color="#3DE2A3"/>
<stop offset="0.140625" stop-color="#3DE2A4"/>
<stop offset="0.148437" stop-color="#3DE2A5"/>
<stop offset="0.15625" stop-color="#3CE2A6"/>
<stop offset="0.164062" stop-color="#3CE2A7"/>
<stop offset="0.171875" stop-color="#3CE1A8"/>
<stop offset="0.179687" stop-color="#3BE1A9"/>
<stop offset="0.1875" stop-color="#3BE1A9"/>
<stop offset="0.195312" stop-color="#3BE1AA"/>
<stop offset="0.203125" stop-color="#3AE1AB"/>
<stop offset="0.210937" stop-color="#3AE1AC"/>
<stop offset="0.21875" stop-color="#3AE1AD"/>
<stop offset="0.226562" stop-color="#39E1AE"/>
<stop offset="0.234375" stop-color="#39E1AF"/>
<stop offset="0.242187" stop-color="#39E1AF"/>
<stop offset="0.25" stop-color="#39E1B0"/>
<stop offset="0.257812" stop-color="#38E1B1"/>
<stop offset="0.265625" stop-color="#38E1B2"/>
<stop offset="0.273437" stop-color="#38E0B3"/>
<stop offset="0.28125" stop-color="#37E0B4"/>
<stop offset="0.289063" stop-color="#37E0B5"/>
<stop offset="0.296875" stop-color="#37E0B5"/>
<stop offset="0.304688" stop-color="#36E0B6"/>
<stop offset="0.3125" stop-color="#36E0B7"/>
<stop offset="0.320312" stop-color="#36E0B8"/>
<stop offset="0.328125" stop-color="#35E0B9"/>
<stop offset="0.335937" stop-color="#35E0BA"/>
<stop offset="0.34375" stop-color="#35E0BB"/>
<stop offset="0.351562" stop-color="#34E0BB"/>
<stop offset="0.359375" stop-color="#34E0BC"/>
<stop offset="0.367188" stop-color="#34E0BD"/>
<stop offset="0.375" stop-color="#34E0BE"/>
<stop offset="0.382812" stop-color="#33DFBF"/>
<stop offset="0.390625" stop-color="#33DFC0"/>
<stop offset="0.398437" stop-color="#33DFC1"/>
<stop offset="0.40625" stop-color="#32DFC1"/>
<stop offset="0.414062" stop-color="#32DFC2"/>
<stop offset="0.421875" stop-color="#32DFC3"/>
<stop offset="0.429688" stop-color="#31DFC4"/>
<stop offset="0.4375" stop-color="#31DFC5"/>
<stop offset="0.445312" stop-color="#31DFC6"/>
<stop offset="0.453125" stop-color="#30DFC7"/>
<stop offset="0.460937" stop-color="#30DFC7"/>
<stop offset="0.46875" stop-color="#30DFC8"/>
<stop offset="0.476562" stop-color="#30DFC9"/>
<stop offset="0.484375" stop-color="#2FDFCA"/>
<stop offset="0.492187" stop-color="#2FDECB"/>
<stop offset="0.5" stop-color="#2FDECC"/>
<stop offset="0.507813" stop-color="#2EDECD"/>
<stop offset="0.515625" stop-color="#2EDECD"/>
<stop offset="0.523438" stop-color="#2EDECE"/>
<stop offset="0.53125" stop-color="#2DDECF"/>
<stop offset="0.539062" stop-color="#2DDED0"/>
<stop offset="0.546875" stop-color="#2DDED1"/>
<stop offset="0.554688" stop-color="#2CDED2"/>
<stop offset="0.5625" stop-color="#2CDED3"/>
<stop offset="0.570312" stop-color="#2CDED3"/>
<stop offset="0.578125" stop-color="#2CDED4"/>
<stop offset="0.585937" stop-color="#2BDED5"/>
<stop offset="0.59375" stop-color="#2BDED6"/>
<stop offset="0.601563" stop-color="#2BDDD7"/>
<stop offset="0.609375" stop-color="#2ADDD8"/>
<stop offset="0.617188" stop-color="#2ADDD9"/>
<stop offset="0.625" stop-color="#2ADDD9"/>
<stop offset="0.632813" stop-color="#29DDDA"/>
<stop offset="0.640625" stop-color="#29DDDB"/>
<stop offset="0.648438" stop-color="#29DDDC"/>
<stop offset="0.65625" stop-color="#28DDDD"/>
<stop offset="0.664062" stop-color="#28DDDE"/>
<stop offset="0.671875" stop-color="#28DDDF"/>
<stop offset="0.679688" stop-color="#27DDDF"/>
<stop offset="0.6875" stop-color="#27DDE0"/>
<stop offset="0.695313" stop-color="#27DDE1"/>
<stop offset="0.703125" stop-color="#27DCE2"/>
<stop offset="0.710938" stop-color="#26DCE3"/>
<stop offset="0.71875" stop-color="#26DCE4"/>
<stop offset="0.726563" stop-color="#26DCE5"/>
<stop offset="0.734375" stop-color="#25DCE5"/>
<stop offset="0.742188" stop-color="#25DCE6"/>
<stop offset="0.75" stop-color="#25DCE7"/>
<stop offset="0.757812" stop-color="#24DCE8"/>
<stop offset="0.765625" stop-color="#24DCE9"/>
<stop offset="0.773438" stop-color="#24DCEA"/>
<stop offset="0.78125" stop-color="#23DCEB"/>
<stop offset="0.789062" stop-color="#23DCEB"/>
<stop offset="0.796875" stop-color="#23DCEC"/>
<stop offset="0.804688" stop-color="#23DCED"/>
<stop offset="0.8125" stop-color="#22DBEE"/>
<stop offset="0.820313" stop-color="#22DBEF"/>
<stop offset="0.828125" stop-color="#22DBF0"/>
<stop offset="0.835938" stop-color="#21DBF1"/>
<stop offset="0.84375" stop-color="#21DBF1"/>
<stop offset="0.851563" stop-color="#21DBF2"/>
<stop offset="0.859375" stop-color="#20DBF3"/>
<stop offset="0.867188" stop-color="#20DBF4"/>
<stop offset="0.875" stop-color="#20DBF5"/>
<stop offset="0.882812" stop-color="#1FDBF6"/>
<stop offset="0.890625" stop-color="#1FDBF7"/>
<stop offset="0.898438" stop-color="#1FDBF7"/>
<stop offset="0.90625" stop-color="#1EDBF8"/>
<stop offset="0.914062" stop-color="#1EDBF9"/>
<stop offset="0.921875" stop-color="#1EDAFA"/>
<stop offset="0.929687" stop-color="#1EDAFB"/>
<stop offset="0.9375" stop-color="#1DDAFC"/>
<stop offset="0.945313" stop-color="#1DDAFD"/>
<stop offset="0.953125" stop-color="#1DDAFD"/>
<stop offset="0.960938" stop-color="#1CDAFE"/>
<stop offset="0.96875" stop-color="#1CDAFF"/>
<stop offset="1" stop-color="#1CDAFF"/>
</linearGradient>
<linearGradient id="paint3_linear_1103_3" x1="88.2674" y1="22.9336" x2="88.2674" y2="98.2973" gradientUnits="userSpaceOnUse">
<stop stop-color="#42E396"/>
<stop offset="0.0078125" stop-color="#42E396"/>
<stop offset="0.015625" stop-color="#42E397"/>
<stop offset="0.0234375" stop-color="#42E397"/>
<stop offset="0.03125" stop-color="#41E398"/>
<stop offset="0.0390625" stop-color="#41E399"/>
<stop offset="0.046875" stop-color="#41E39A"/>
<stop offset="0.0546875" stop-color="#40E39B"/>
<stop offset="0.0625" stop-color="#40E29C"/>
<stop offset="0.0703125" stop-color="#40E29D"/>
<stop offset="0.078125" stop-color="#3FE29D"/>
<stop offset="0.0859375" stop-color="#3FE29E"/>
<stop offset="0.09375" stop-color="#3FE29F"/>
<stop offset="0.101562" stop-color="#3EE2A0"/>
<stop offset="0.109375" stop-color="#3EE2A1"/>
<stop offset="0.117188" stop-color="#3EE2A2"/>
<stop offset="0.125" stop-color="#3DE2A3"/>
<stop offset="0.132812" stop-color="#3DE2A3"/>
<stop offset="0.140625" stop-color="#3DE2A4"/>
<stop offset="0.148437" stop-color="#3DE2A5"/>
<stop offset="0.15625" stop-color="#3CE2A6"/>
<stop offset="0.164062" stop-color="#3CE2A7"/>
<stop offset="0.171875" stop-color="#3CE1A8"/>
<stop offset="0.179687" stop-color="#3BE1A9"/>
<stop offset="0.1875" stop-color="#3BE1A9"/>
<stop offset="0.195312" stop-color="#3BE1AA"/>
<stop offset="0.203125" stop-color="#3AE1AB"/>
<stop offset="0.210937" stop-color="#3AE1AC"/>
<stop offset="0.21875" stop-color="#3AE1AD"/>
<stop offset="0.226562" stop-color="#39E1AE"/>
<stop offset="0.234375" stop-color="#39E1AF"/>
<stop offset="0.242187" stop-color="#39E1AF"/>
<stop offset="0.25" stop-color="#39E1B0"/>
<stop offset="0.257812" stop-color="#38E1B1"/>
<stop offset="0.265625" stop-color="#38E1B2"/>
<stop offset="0.273437" stop-color="#38E0B3"/>
<stop offset="0.28125" stop-color="#37E0B4"/>
<stop offset="0.289063" stop-color="#37E0B5"/>
<stop offset="0.296875" stop-color="#37E0B5"/>
<stop offset="0.304688" stop-color="#36E0B6"/>
<stop offset="0.3125" stop-color="#36E0B7"/>
<stop offset="0.320312" stop-color="#36E0B8"/>
<stop offset="0.328125" stop-color="#35E0B9"/>
<stop offset="0.335937" stop-color="#35E0BA"/>
<stop offset="0.34375" stop-color="#35E0BB"/>
<stop offset="0.351562" stop-color="#34E0BB"/>
<stop offset="0.359375" stop-color="#34E0BC"/>
<stop offset="0.367188" stop-color="#34E0BD"/>
<stop offset="0.375" stop-color="#34E0BE"/>
<stop offset="0.382812" stop-color="#33DFBF"/>
<stop offset="0.390625" stop-color="#33DFC0"/>
<stop offset="0.398437" stop-color="#33DFC1"/>
<stop offset="0.40625" stop-color="#32DFC1"/>
<stop offset="0.414062" stop-color="#32DFC2"/>
<stop offset="0.421875" stop-color="#32DFC3"/>
<stop offset="0.429688" stop-color="#31DFC4"/>
<stop offset="0.4375" stop-color="#31DFC5"/>
<stop offset="0.445312" stop-color="#31DFC6"/>
<stop offset="0.453125" stop-color="#30DFC7"/>
<stop offset="0.460937" stop-color="#30DFC7"/>
<stop offset="0.46875" stop-color="#30DFC8"/>
<stop offset="0.476562" stop-color="#30DFC9"/>
<stop offset="0.484375" stop-color="#2FDFCA"/>
<stop offset="0.492187" stop-color="#2FDECB"/>
<stop offset="0.5" stop-color="#2FDECC"/>
<stop offset="0.507813" stop-color="#2EDECD"/>
<stop offset="0.515625" stop-color="#2EDECD"/>
<stop offset="0.523438" stop-color="#2EDECE"/>
<stop offset="0.53125" stop-color="#2DDECF"/>
<stop offset="0.539062" stop-color="#2DDED0"/>
<stop offset="0.546875" stop-color="#2DDED1"/>
<stop offset="0.554688" stop-color="#2CDED2"/>
<stop offset="0.5625" stop-color="#2CDED3"/>
<stop offset="0.570312" stop-color="#2CDED3"/>
<stop offset="0.578125" stop-color="#2CDED4"/>
<stop offset="0.585937" stop-color="#2BDED5"/>
<stop offset="0.59375" stop-color="#2BDED6"/>
<stop offset="0.601563" stop-color="#2BDDD7"/>
<stop offset="0.609375" stop-color="#2ADDD8"/>
<stop offset="0.617188" stop-color="#2ADDD9"/>
<stop offset="0.625" stop-color="#2ADDD9"/>
<stop offset="0.632813" stop-color="#29DDDA"/>
<stop offset="0.640625" stop-color="#29DDDB"/>
<stop offset="0.648438" stop-color="#29DDDC"/>
<stop offset="0.65625" stop-color="#28DDDD"/>
<stop offset="0.664062" stop-color="#28DDDE"/>
<stop offset="0.671875" stop-color="#28DDDF"/>
<stop offset="0.679688" stop-color="#27DDDF"/>
<stop offset="0.6875" stop-color="#27DDE0"/>
<stop offset="0.695313" stop-color="#27DDE1"/>
<stop offset="0.703125" stop-color="#27DCE2"/>
<stop offset="0.710938" stop-color="#26DCE3"/>
<stop offset="0.71875" stop-color="#26DCE4"/>
<stop offset="0.726563" stop-color="#26DCE5"/>
<stop offset="0.734375" stop-color="#25DCE5"/>
<stop offset="0.742188" stop-color="#25DCE6"/>
<stop offset="0.75" stop-color="#25DCE7"/>
<stop offset="0.757812" stop-color="#24DCE8"/>
<stop offset="0.765625" stop-color="#24DCE9"/>
<stop offset="0.773438" stop-color="#24DCEA"/>
<stop offset="0.78125" stop-color="#23DCEB"/>
<stop offset="0.789062" stop-color="#23DCEB"/>
<stop offset="0.796875" stop-color="#23DCEC"/>
<stop offset="0.804688" stop-color="#23DCED"/>
<stop offset="0.8125" stop-color="#22DBEE"/>
<stop offset="0.820313" stop-color="#22DBEF"/>
<stop offset="0.828125" stop-color="#22DBF0"/>
<stop offset="0.835938" stop-color="#21DBF1"/>
<stop offset="0.84375" stop-color="#21DBF1"/>
<stop offset="0.851563" stop-color="#21DBF2"/>
<stop offset="0.859375" stop-color="#20DBF3"/>
<stop offset="0.867188" stop-color="#20DBF4"/>
<stop offset="0.875" stop-color="#20DBF5"/>
<stop offset="0.882812" stop-color="#1FDBF6"/>
<stop offset="0.890625" stop-color="#1FDBF7"/>
<stop offset="0.898438" stop-color="#1FDBF7"/>
<stop offset="0.90625" stop-color="#1EDBF8"/>
<stop offset="0.914062" stop-color="#1EDBF9"/>
<stop offset="0.921875" stop-color="#1EDAFA"/>
<stop offset="0.929687" stop-color="#1EDAFB"/>
<stop offset="0.9375" stop-color="#1DDAFC"/>
<stop offset="0.945313" stop-color="#1DDAFD"/>
<stop offset="0.953125" stop-color="#1DDAFD"/>
<stop offset="0.960938" stop-color="#1CDAFE"/>
<stop offset="0.96875" stop-color="#1CDAFF"/>
<stop offset="1" stop-color="#1CDAFF"/>
</linearGradient>
<linearGradient id="paint4_linear_1103_3" x1="64.4575" y1="63.9467" x2="64.4575" y2="57.2844" gradientUnits="userSpaceOnUse">
<stop stop-color="#42E396"/>
<stop offset="0.0078125" stop-color="#42E396"/>
<stop offset="0.015625" stop-color="#42E397"/>
<stop offset="0.0234375" stop-color="#42E397"/>
<stop offset="0.03125" stop-color="#41E398"/>
<stop offset="0.0390625" stop-color="#41E399"/>
<stop offset="0.046875" stop-color="#41E39A"/>
<stop offset="0.0546875" stop-color="#40E39B"/>
<stop offset="0.0625" stop-color="#40E29C"/>
<stop offset="0.0703125" stop-color="#40E29D"/>
<stop offset="0.078125" stop-color="#3FE29D"/>
<stop offset="0.0859375" stop-color="#3FE29E"/>
<stop offset="0.09375" stop-color="#3FE29F"/>
<stop offset="0.101562" stop-color="#3EE2A0"/>
<stop offset="0.109375" stop-color="#3EE2A1"/>
<stop offset="0.117187" stop-color="#3EE2A2"/>
<stop offset="0.125" stop-color="#3DE2A3"/>
<stop offset="0.132812" stop-color="#3DE2A3"/>
<stop offset="0.140625" stop-color="#3DE2A4"/>
<stop offset="0.148437" stop-color="#3DE2A5"/>
<stop offset="0.15625" stop-color="#3CE2A6"/>
<stop offset="0.164062" stop-color="#3CE2A7"/>
<stop offset="0.171875" stop-color="#3CE1A8"/>
<stop offset="0.179687" stop-color="#3BE1A9"/>
<stop offset="0.1875" stop-color="#3BE1A9"/>
<stop offset="0.195312" stop-color="#3BE1AA"/>
<stop offset="0.203125" stop-color="#3AE1AB"/>
<stop offset="0.210937" stop-color="#3AE1AC"/>
<stop offset="0.21875" stop-color="#3AE1AD"/>
<stop offset="0.226562" stop-color="#39E1AE"/>
<stop offset="0.234375" stop-color="#39E1AF"/>
<stop offset="0.242187" stop-color="#39E1AF"/>
<stop offset="0.25" stop-color="#39E1B0"/>
<stop offset="0.257812" stop-color="#38E1B1"/>
<stop offset="0.265625" stop-color="#38E1B2"/>
<stop offset="0.273438" stop-color="#38E0B3"/>
<stop offset="0.28125" stop-color="#37E0B4"/>
<stop offset="0.289062" stop-color="#37E0B5"/>
<stop offset="0.296875" stop-color="#37E0B5"/>
<stop offset="0.304687" stop-color="#36E0B6"/>
<stop offset="0.3125" stop-color="#36E0B7"/>
<stop offset="0.320312" stop-color="#36E0B8"/>
<stop offset="0.328125" stop-color="#35E0B9"/>
<stop offset="0.335937" stop-color="#35E0BA"/>
<stop offset="0.34375" stop-color="#35E0BB"/>
<stop offset="0.351562" stop-color="#34E0BB"/>
<stop offset="0.359375" stop-color="#34E0BC"/>
<stop offset="0.367188" stop-color="#34E0BD"/>
<stop offset="0.375" stop-color="#34E0BE"/>
<stop offset="0.382812" stop-color="#33DFBF"/>
<stop offset="0.390625" stop-color="#33DFC0"/>
<stop offset="0.398437" stop-color="#33DFC1"/>
<stop offset="0.40625" stop-color="#32DFC1"/>
<stop offset="0.414062" stop-color="#32DFC2"/>
<stop offset="0.421875" stop-color="#32DFC3"/>
<stop offset="0.429687" stop-color="#31DFC4"/>
<stop offset="0.4375" stop-color="#31DFC5"/>
<stop offset="0.445312" stop-color="#31DFC6"/>
<stop offset="0.453125" stop-color="#30DFC7"/>
<stop offset="0.460937" stop-color="#30DFC7"/>
<stop offset="0.46875" stop-color="#30DFC8"/>
<stop offset="0.476562" stop-color="#30DFC9"/>
<stop offset="0.484375" stop-color="#2FDFCA"/>
<stop offset="0.492187" stop-color="#2FDECB"/>
<stop offset="0.5" stop-color="#2FDECC"/>
<stop offset="0.507812" stop-color="#2EDECD"/>
<stop offset="0.515625" stop-color="#2EDECD"/>
<stop offset="0.523438" stop-color="#2EDECE"/>
<stop offset="0.53125" stop-color="#2DDECF"/>
<stop offset="0.539063" stop-color="#2DDED0"/>
<stop offset="0.546875" stop-color="#2DDED1"/>
<stop offset="0.554688" stop-color="#2CDED2"/>
<stop offset="0.5625" stop-color="#2CDED3"/>
<stop offset="0.570312" stop-color="#2CDED3"/>
<stop offset="0.578125" stop-color="#2CDED4"/>
<stop offset="0.585938" stop-color="#2BDED5"/>
<stop offset="0.59375" stop-color="#2BDED6"/>
<stop offset="0.601562" stop-color="#2BDDD7"/>
<stop offset="0.609375" stop-color="#2ADDD8"/>
<stop offset="0.617188" stop-color="#2ADDD9"/>
<stop offset="0.625" stop-color="#2ADDD9"/>
<stop offset="0.632813" stop-color="#29DDDA"/>
<stop offset="0.640625" stop-color="#29DDDB"/>
<stop offset="0.648438" stop-color="#29DDDC"/>
<stop offset="0.65625" stop-color="#28DDDD"/>
<stop offset="0.664062" stop-color="#28DDDE"/>
<stop offset="0.671875" stop-color="#28DDDF"/>
<stop offset="0.679688" stop-color="#27DDDF"/>
<stop offset="0.6875" stop-color="#27DDE0"/>
<stop offset="0.695312" stop-color="#27DDE1"/>
<stop offset="0.703125" stop-color="#27DCE2"/>
<stop offset="0.710938" stop-color="#26DCE3"/>
<stop offset="0.71875" stop-color="#26DCE4"/>
<stop offset="0.726563" stop-color="#26DCE5"/>
<stop offset="0.734375" stop-color="#25DCE5"/>
<stop offset="0.742188" stop-color="#25DCE6"/>
<stop offset="0.75" stop-color="#25DCE7"/>
<stop offset="0.757812" stop-color="#24DCE8"/>
<stop offset="0.765625" stop-color="#24DCE9"/>
<stop offset="0.773437" stop-color="#24DCEA"/>
<stop offset="0.78125" stop-color="#23DCEB"/>
<stop offset="0.789062" stop-color="#23DCEB"/>
<stop offset="0.796875" stop-color="#23DCEC"/>
<stop offset="0.804688" stop-color="#23DCED"/>
<stop offset="0.8125" stop-color="#22DBEE"/>
<stop offset="0.820312" stop-color="#22DBEF"/>
<stop offset="0.828125" stop-color="#22DBF0"/>
<stop offset="0.835938" stop-color="#21DBF1"/>
<stop offset="0.84375" stop-color="#21DBF1"/>
<stop offset="0.851562" stop-color="#21DBF2"/>
<stop offset="0.859375" stop-color="#20DBF3"/>
<stop offset="0.867187" stop-color="#20DBF4"/>
<stop offset="0.875" stop-color="#20DBF5"/>
<stop offset="0.882812" stop-color="#1FDBF6"/>
<stop offset="0.890625" stop-color="#1FDBF7"/>
<stop offset="0.898438" stop-color="#1FDBF7"/>
<stop offset="0.90625" stop-color="#1EDBF8"/>
<stop offset="0.914062" stop-color="#1EDBF9"/>
<stop offset="0.921875" stop-color="#1EDAFA"/>
<stop offset="0.929688" stop-color="#1EDAFB"/>
<stop offset="0.9375" stop-color="#1DDAFC"/>
<stop offset="0.945312" stop-color="#1DDAFD"/>
<stop offset="0.953125" stop-color="#1DDAFD"/>
<stop offset="0.960937" stop-color="#1CDAFE"/>
<stop offset="0.96875" stop-color="#1CDAFF"/>
<stop offset="1" stop-color="#1CDAFF"/>
</linearGradient>
</defs>
</svg>
